<?xml version="1.0" encoding="utf-8"?>
<!-- Generator: Adobe Illustrator 24.0.1, SVG Export Plug-In . SVG Version: 6.00 Build 0)  -->
<svg version="1.1" id="Layer_1" xmlns="http://www.w3.org/2000/svg" xmlns:xlink="http://www.w3.org/1999/xlink" x="0px" y="0px"
	 viewBox="0 0 383.2 162" style="enable-background:new 0 0 383.2 162;" xml:space="preserve">
<style type="text/css">
	.st0{fill:#ED6F00;}
</style>
<g>
	<g>
		<defs>
			<path id="SVGID_1_" d="M355,33.6c-0.2-2.5-0.5-4.4-0.8-5.6c-0.8-3.1-1.9-5-3.3-6.7c-1.4-1.7-2.8-2.8-4.2-3.6
				c-1.4-0.7-2.8-1.1-4-1.2c-1.3-0.1-2.1-0.1-2.6-0.1c-2.8,0.2-5.2,1-7.3,2.5c-2.1,1.5-3.9,3.4-5.3,5.7c-1.5,2.3-2.6,4.6-3.5,7.5
				c-0.9,3-1.5,6-1.8,9.1c-0.2,1.8-0.3,3.6-0.3,5.5c-0.1,0.3-0.2,0.6-0.3,0.9c-0.5,1.4-0.8,2.6-1.3,3.8c-0.8,2-1.5,2.9-2.3,3.3
				c-0.8,0.5-1.3,0.7-1.6,0.7c-0.6,0-1-0.1-1.4-0.5c-0.4-0.4-0.6-0.7-0.7-1.1c-0.1-0.4-0.2-0.8-0.2-1c0-0.2,0-0.3,0.1-0.4l2.8-36.5
				c0-0.2-0.2-0.3-0.4-0.3c-0.6,0.1-1.3,0.3-2.2,0.4c-0.8,0.2-1.7,0.5-2.6,0.8c-0.9,0.4-1.8,0.9-2.7,1.6c-0.9,0.7-1.6,1.5-2.3,2.6
				l-0.1,0.1l-0.1,0.1c-0.1,0-0.2-0.1-0.4-0.3c-0.3-0.6-0.7-1.1-1.3-1.6c-0.5-0.4-1.1-0.8-1.9-1.1c-0.8-0.3-1.7-0.4-2.8-0.3
				c-2.1,0.2-4.1,1-5.8,2.5c-1.8,1.5-3.4,3.4-4.8,5.8c-1.4,2.4-2.6,5.1-3.6,8.2c-0.6,2-0.8,2.4-1,3.4c-0.1-0.1-0.9,5.3-1.5,7.6
				c-0.6,2.3-1.2,4.3-1.8,6c-0.7,2-1.5,3.8-2.4,5.4c-1.3,2.7-2.7,4.5-4.2,5.3c-1.5,0.8-2.8,1.3-3.9,1.4c-1.7,0.2-3-0.3-4-1.4
				c-1-1.1-1.7-2.4-2.2-4.1c-0.3-1.1-0.5-2.4-0.6-3.8c-0.1-1.4-0.1-3.4,0.1-6c0.1-2.5,0.4-5.8,0.7-9.8c0.3-4,0.8-7.4,1.2-13.8
				c0.1-1.1,0.3-2,0.7-2.8c0.3-0.8,0.7-1.4,1.3-2.1c0.6-0.6,1.4-1,2.4-1.1c0.6-0.1,1.2,0.1,2,0.3c0.8,0.3,1.3,1,1.6,2.2
				c0.1,0.4,0.1,0.8,0.1,1.1c-0.1,0.3-0.2,0.5-0.3,0.7c-0.2,0.3-0.3,0.5-0.5,0.5c-2.1,1.1-3.4,2.4-3.8,3.8c-0.5,1.4-0.4,3.1,0.1,4.9
				c0.3,1.2,0.8,2,1.4,2.6c0.6,0.6,1.2,1.1,1.9,1.4c0.6,0.3,1.3,0.5,1.8,0.5c0.6,0,1,0,1.2,0c1.5-0.1,2.8-0.7,3.7-1.5
				c0.9-0.9,1.5-1.9,1.9-3.1c0.4-1.2,0.5-2.5,0.5-3.8c-0.1-1.4-0.2-2.6-0.6-3.8c-0.6-2.2-1.5-3.9-2.6-5c-1.1-1.2-2.3-2-3.5-2.5
				c-1.2-0.5-2.4-0.7-3.4-0.7c-1.1,0-1.9,0-2.4,0.1c-3.1,0.3-5.7,1.3-7.9,3c-2.2,1.7-4,3.9-5.4,6.4c-1.4,2.6-2.5,5.4-3.3,8.6
				c-0.7,3.1-1.2,4.5-1.4,7.7c-0.1,1.5-0.1,3-0.1,4.5c-0.4,1.7-0.9,3.2-1.3,4.4c-0.5,1.4-0.8,2.5-1.3,3.8c-0.8,1.9-1.4,2.9-2.2,3.4
				c-0.8,0.5-1.3,0.7-1.6,0.8c-0.6,0.1-1-0.1-1.4-0.5c-0.4-0.4-0.6-0.7-0.7-1.1c-0.1-0.5-0.2-0.8-0.2-1c0-0.2,0-0.3,0.1-0.4
				l3.2-37.6c-0.1-0.2-0.2-0.3-0.4-0.3c-0.6,0.1-1.3,0.3-2.1,0.5c-0.8,0.2-1.7,0.5-2.6,0.8c-0.9,0.4-1.8,0.9-2.6,1.6
				c-0.9,0.7-1.6,1.5-2.3,2.6l-0.1,0.1l-0.1,0.1c-0.1,0-0.2-0.1-0.4-0.3c-0.3-0.6-0.7-1.1-1.3-1.6c-0.5-0.4-1.1-0.8-1.9-1.1
				c-0.8-0.3-1.7-0.4-2.7-0.3c-2.1,0.2-4,1-5.8,2.5c-1.8,1.5-3.3,3.5-4.7,5.9c-1.4,2.4-2.6,5.2-3.5,8.3c-0.9,3.1-1.6,4.2-2,7.6
				c-0.2,1.7-0.1,0.6-0.3,2.3c-1.3,2.7-2.7,4.7-4.1,6.6c-1.5,1.9-3,3.4-4.6,4.6c-1.6,1.1-3.1,2-4.6,2.6c-1.5,0.6-2.9,1-4.2,1.1
				c-2.9,0.4-5.3,0.3-7.3-0.4c-2-0.7-3.7-1.7-5-3.1c-1.3-1.3-2.4-2.9-3.2-4.6c-0.8-1.8-1.4-3.5-1.8-5.2c-1.2-5.3-1.5-10.3-1-15.3
				c0.5-4.9,1.7-9.3,3.4-13.3c1.7-3.9,3.8-7.1,6.3-9.6c2.5-2.5,5.1-3.9,7.9-4.3c1.8-0.3,3.3-0.1,4.5,0.5c1.2,0.6,2.1,1.4,2.8,2.3
				c0.7,0.9,1.2,1.8,1.5,2.8c0.3,0.9,0.5,1.6,0.6,2.1l0,0.1c0.1,0.4,0.2,0.8,0.2,1.4c0.1,0.5,0,1.1,0,1.5c-0.1,0.5-0.2,0.9-0.5,1.2
				c-0.2,0.4-0.6,0.6-1.2,0.7c-0.1,0-0.3-0.1-0.6-0.3c-0.3-0.2-0.7-0.7-1.1-1.6c-0.3-0.6-0.7-1.1-1.1-1.6c-0.4-0.4-1-0.7-1.7-1
				c-0.7-0.3-1.6-0.3-2.6-0.2c-0.4,0.1-1.2,0.3-2.4,0.7c-1.1,0.4-2.2,1.1-3.2,2.2c-1,1.1-1.8,2.7-2.3,4.7c-0.5,2-0.4,4.7,0.4,8.1
				c0.6,1.7,1.4,3.1,2.3,4.3c0.9,1,2,1.9,3.4,2.6c1.4,0.7,3.1,1,5.2,0.7c2.6-0.4,4.7-1.1,6.4-2.3c1.6-1.1,2.9-2.4,3.8-3.9
				c0.9-1.5,1.5-3.1,1.8-4.8c0.3-1.7,0.4-3.4,0.4-4.9c0-1.6-0.1-3-0.3-4.2c-0.2-1.2-0.4-2.1-0.5-2.7c-0.4-1.6-0.9-3.2-1.7-5
				c-0.8-1.8-1.8-3.3-3.2-4.7c-1.4-1.4-3.1-2.5-5.2-3.2c-2.1-0.7-4.7-0.9-7.7-0.4c-3,0.4-5.9,1.4-8.8,2.9c-2.9,1.5-5.6,3.5-8.1,5.9
				c-2.5,2.4-4.8,5.3-6.8,8.6c-2,3.3-3.6,6.9-4.8,10.9c-1.2,4-1.8,8.2-2,12.8c-0.2,4.6,0.3,9.4,1.5,14.4c0.7,2.8,1.7,5.7,3.3,8.5
				c1.5,2.8,3.4,5.3,5.8,7.4c2.3,2.1,5,3.7,8.1,4.9c3.1,1.1,6.5,1.4,10.3,0.9c3.2-0.5,6-1.5,8.3-3c2.4-1.6,4.4-3.4,6.1-5.6
				c1.7-2.1,3.1-4.4,4.2-6.8c1.1-2.4,2-4.8,2.6-7c0.2-0.7,0.3-1.3,0.5-2c0.2,2.8,0.7,8.5,1.4,11c0.9,3.1,2,5.5,3.5,7.1
				c1.5,1.6,3.5,2.4,5.9,2.1c0.2,0,0.7-0.1,1.5-0.3c0.7-0.2,1.6-0.7,2.5-1.4c0.9-0.8,1.8-1.9,2.7-3.3c0.9-1.4,1.6-3.4,2.1-5.9
				c0.1,0,0.1,0,0.2-0.1l0.1-0.2l0,0.4c0,0.6,0,1.2-0.1,1.8c0,0.5,0.1,1.1,0.1,1.7c0.1,0.6,0.2,1.3,0.3,1.9c0.3,1.1,0.8,2,1.6,2.8
				c0.8,0.8,1.8,1.1,3,1c1.5-0.1,3.1-1,4.6-2.5c1.5-1.5,3-3.5,4.4-5.9c1.4-2.5,2.6-5.3,3.7-8.6c0.3-0.8,0.5-1.7,0.8-2.5
				c0.2,2.1,0.6,4,1,5.5c0.3,1,0.7,2.2,1.4,3.6c0.6,1.4,1.5,2.8,2.6,4.2c1.1,1.4,2.5,2.5,4.1,3.3c1.6,0.9,3.6,1.2,5.8,1
				c0.6-0.1,1.5-0.2,2.6-0.5c1.1-0.3,2.3-0.9,3.7-1.7c1.3-0.8,2.7-2,4-3.6c1.4-1.5,2.7-3.6,3.9-6.2c0.8-1.8,1.5-3.6,2.2-5.5
				c0.3-0.7,0.5-1.4,0.8-2.2c0,0.1,0,0.2,0,0.2c0.2,3.4,0.7,6.6,1.5,9.7c0.9,3.1,2,5.4,3.5,7.1c1.5,1.6,3.5,2.3,6,2.1
				c0.2,0,0.7-0.1,1.5-0.3c0.7-0.2,1.6-0.7,2.5-1.4c0.9-0.7,1.9-1.8,2.8-3.3c0.9-1.4,1.7-4,2.2-5.7c0.1-0.5,0.3-1,0.3-1
				s0,2.1-0.1,2.7c0,0.5,0.1,2.1,0.1,2.7c0,0.6,0.2,1.2,0.3,1.9c0.3,1.1,0.8,2,1.6,2.8c0.8,0.8,1.8,1.1,3,1c1.6-0.1,3.1-1,4.7-2.5
				c1.6-1.5,3-4.5,4.4-6.9c1.3-2.3,2.5-4.9,3.5-7.8c0.2,2.3,0.6,4.4,1.2,6.4c0.4,1.7,1,3.2,1.7,4.7c0.7,1.5,1.6,2,2.7,3.1
				c1.1,1.1,2.3,2,3.9,2.6c1.5,0.6,3.3,0.8,5.4,0.7c3.5-0.3,6.4-1.3,8.8-3.2c2.3-1.9,3.9-3.9,5.3-6.7c1.4-2.8,2.6-5.6,3.2-8.9
				c0.6-3.3,0.9-6.5,1.1-9.7C355.4,39,355.3,36.2,355,33.6z M235,29.5l-2.5,29.2c-0.2,2.5-0.5,4.5-1,6c-0.5,1.4-0.9,2.5-1.4,3.3
				c-0.5,0.8-0.9,1.3-1.3,1.5c-0.4,0.2-0.8,0.3-1,0.4c-0.7,0.1-1.2-0.7-1.7-2.2c-0.4-1.6-0.7-3.7-0.8-6.4c-0.1-2.7-0.1-5.8,0-9
				c0.1-3.3,0.4-6.6,0.8-10c0.4-3.4,0.8-4.4,1.4-7.2c0.6-2.8,1.3-5.1,2.1-6.9c0.8-1.8,1.7-2.7,2.6-2.8c0.4,0,0.7,0,1.1,0.2
				c0.3,0.1,0.6,0.3,0.9,0.7c0.3,0.3,0.5,0.8,0.7,1.3C235,27.8,235.1,28.5,235,29.5z M305.4,26.7l-2.1,28.1c-0.2,2.5-0.5,4.5-1,5.9
				c-0.5,1.4-0.9,2.5-1.4,3.3c-0.5,0.8-0.9,1.3-1.4,1.5c-0.5,0.2-0.8,0.3-1.1,0.3c-0.7,0.1-1.2-0.7-1.7-2.2
				c-0.4-1.5-0.7-3.7-0.8-6.4c-0.1-2.7-0.1-5.7,0-8.9c0.2-3.2,0.4-6.5,0.8-9.9c0.4-3.4,0.4-3.6,1-6.4c0.6-2.8,1.3-5,2.1-6.8
				c0.8-1.8,1.7-2.7,2.6-2.8c0.4,0,0.7,0,1.1,0.2c0.3,0.1,0.6,0.3,0.9,0.7c0.3,0.3,0.5,0.8,0.7,1.3C305.4,25,305.4,25.7,305.4,26.7z
				 M343.9,37.4c-0.2,3.6-0.6,7.3-1.1,11.2c-0.5,3.9-1.1,7.4-1.7,10.6c-0.7,3.2-1.4,5.1-2.2,7.2c-0.9,2.1-1.7,3.2-2.7,3.3
				c-0.6,0-1,0-1.4-0.2c-0.3-0.2-0.6-0.5-0.8-0.8c-0.3-0.3-0.5-0.7-0.6-1.2c-0.2-0.8-0.4-1.8-0.4-4.5c0-2.7,0-5.8,0.2-9.4
				c0.2-3.6,0.5-7.3,0.8-11.3c0.4-4,0.9-7.6,1.5-10.9c0.6-3.3,1.4-5.7,2.3-7.9c0.9-2.2,1.9-3.3,3-3.4c0.1,0,0.2,0,0.5,0
				c0.3,0,0.6,0.1,0.9,0.2c0.3,0.1,0.6,0.3,0.9,0.6c0.3,0.3,0.5,0.7,0.7,1.3c0.3,1.2,0.5,2.7,0.5,5.6
				C344.2,30.6,344.1,33.8,343.9,37.4z"/>
		</defs>
		<use xlink:href="#SVGID_1_"  style="overflow:visible;fill:#FFFFFF;"/>
		<clipPath id="SVGID_2_">
			<use xlink:href="#SVGID_1_"  style="overflow:visible;"/>
		</clipPath>
	</g>
	<g>
		<defs>
			<path id="SVGID_3_" d="M67,38c-0.3-0.9-0.4-1.9-0.3-2.9c0.1-1,0.3-1.9,0.7-2.8c0.4-0.8,0.9-1.6,1.5-2.1c0.7-0.6,1.5-1,2.4-1.2
				c1.5-0.3,2.8-0.1,4.1,0.8c1.2,0.9,2.1,2.1,2.6,3.6c0.5,1.5,0.6,2.8,0.3,3.9c-0.2,1.1-0.6,2-1.2,2.7c-0.6,0.7-1.2,1.3-1.9,1.7
				c-0.7,0.4-1.3,0.6-1.8,0.7c-1.4,0.3-2.7,0-3.9-0.9C68.3,40.8,67.4,39.6,67,38z M103.5,87.8c-0.6,2.6-1.1,4.7-1.9,6.2
				c-0.9,1.6-1.7,2.8-2.7,3.7c-0.9,0.9-1.7,1.5-2.5,1.8c-0.7,0.3-1.2,0.5-1.5,0.5c-2.5,0.6-4.5,0.1-6-1.3c-1.6-1.5-2.8-3.7-3.8-6.7
				c-0.5-1.7-1-3.6-1.3-5.4c-0.3,1-0.6,1.9-0.9,2.8c-1.2,3.6-2.6,6.7-4.1,9.2c-1.5,2.5-3,4.4-4.6,5.8c-1.6,1.4-3.1,2.2-4.5,2.6
				c-1.4,0.3-2.4,0.1-3.1-0.6c-0.7-0.7-1.3-1.6-1.6-2.6c-0.1-0.4-0.3-0.9-0.3-1.5c-0.1-0.6-0.1-1.4-0.2-2.5c0-1.1,0-2.6,0-4.5
				c0-0.5,0-1.1,0-1.7c-0.3,1.4-0.7,2.9-1.2,4.3c-0.8,2.6-2,5.1-3.4,7.4c-1.4,2.4-3.3,4.5-5.4,6.3c-2.2,1.8-4.8,3.2-7.9,4
				c-3.7,1-7.2,1.1-10.4,0.3c-3.2-0.8-6.1-2.1-8.6-4c-2.6-1.9-4.8-4.2-6.6-6.8c-1.8-2.7-3.3-5.4-4.2-8.2c-1.7-4.9-2.8-9.7-3.1-14.4
				c-0.4-4.6-0.2-9,0.5-13.2c0.7-4.1,1.9-8,3.5-11.5c1.6-3.5,3.6-6.7,5.8-9.4c2.2-2.7,4.7-5,7.4-6.9c2.7-1.9,5.5-3.2,8.5-4
				c3-0.8,5.6-0.9,7.7-0.4c2.2,0.5,4,1.4,5.6,2.7c1.5,1.3,2.8,2.7,3.7,4.4c1,1.7,1.7,3.3,2.3,4.9c0.2,0.6,0.5,1.4,0.8,2.6
				c0.4,1.2,0.6,2.6,0.8,4.2c0.2,1.6,0.2,3.3,0.1,5c-0.1,1.8-0.5,3.5-1.2,5.1c-0.7,1.6-1.8,3.1-3.3,4.4c-1.5,1.3-3.5,2.3-6.1,3
				c-2,0.5-3.8,0.5-5.2-0.1c-1.5-0.6-2.7-1.3-3.7-2.2c-1.1-1.1-2-2.4-2.8-4.1c-1.2-3.3-1.6-6-1.3-8.1c0.3-2.1,0.8-3.8,1.7-5
				c0.9-1.2,1.9-2.1,2.9-2.6c1.1-0.5,1.8-0.9,2.3-1c1-0.3,1.8-0.3,2.6-0.1c0.7,0.2,1.3,0.4,1.8,0.8c0.5,0.4,1,0.9,1.3,1.5
				c0.6,0.8,1,1.3,1.3,1.4c0.3,0.2,0.5,0.2,0.7,0.2c0.5-0.1,0.9-0.4,1.1-0.8c0.2-0.4,0.3-0.8,0.3-1.3c0-0.5,0-1-0.1-1.5
				c-0.1-0.5-0.3-1-0.4-1.4l0-0.1c-0.2-0.4-0.4-1.1-0.9-2c-0.4-0.9-1-1.8-1.8-2.6c-0.8-0.8-1.8-1.5-3.1-2c-1.3-0.5-2.8-0.5-4.6,0
				c-2.7,0.7-5.1,2.5-7.4,5.3c-2.2,2.8-4,6.3-5.2,10.5c-1.2,4.2-1.9,8.8-1.8,13.8c0,5,0.9,10.2,2.8,15.3c0.6,1.7,1.4,3.4,2.4,5
				c1,1.7,2.2,3.1,3.7,4.3c1.5,1.2,3.3,2,5.3,2.5c2.1,0.5,4.5,0.3,7.3-0.4c1.3-0.3,2.6-0.9,4-1.6c1.4-0.8,2.8-1.8,4.3-3.1
				c1.4-1.3,2.8-3,4.1-5.1c1.3-2.1,2.4-4.7,3.4-7.7l0.1-0.2l0.2-0.3c0,0,0,0,0,0c0-1.3,0.1-2.6,0.1-4c0.2-4.5,0.4-10,0.6-16.3
				c0.1-2.1,0.6-3.8,1.4-5.2c0.8-1.4,1.8-2.5,2.9-3.4c1.1-0.9,2.3-1.6,3.5-2c1.2-0.5,2.1-0.8,2.8-1.1c0.2,0,0.3,0,0.3,0.1l-1.3,39.9
				c-0.1,0.2-0.1,0.5-0.1,0.7c0,0.5,0.1,1,0.3,1.5c0.4,1.1,1.1,1.5,2.1,1.2c0.4-0.1,1-0.5,1.7-1.2c0.7-0.7,1.4-2.2,2.2-4.6
				c0.4-1.2,0.8-2.5,1.2-4c0.2-0.6,0.3-1.3,0.5-2c-0.1-2.7-0.1-5.4,0.2-8.1c0.3-3.4,0.9-6.8,1.7-10c0.9-3.2,2-6.2,3.3-8.8
				c1.3-2.6,2.8-4.8,4.6-6.6c1.7-1.8,3.6-2.9,5.7-3.4c1-0.3,2-0.3,2.8-0.1c0.8,0.2,1.4,0.5,1.9,0.8c0.6,0.4,1,0.9,1.3,1.4
				c0.1,0.2,0.2,0.2,0.4,0.2l0.1-0.1l0.1-0.1c0.6-1.2,1.4-2.1,2.2-2.9c0.8-0.8,1.7-1.5,2.6-2c0.9-0.5,1.8-0.9,2.6-1.2
				c0.8-0.3,1.5-0.6,2.1-0.8c0.2,0,0.3,0,0.4,0.2l-2,40.5c0,0.1-0.1,0.2-0.1,0.4c0,0.2,0.1,0.5,0.2,1c0.1,0.4,0.4,0.7,0.8,1
				c0.4,0.3,0.9,0.4,1.4,0.3c0.3-0.1,0.8-0.4,1.6-1c0.7-0.6,3.1-3.1,3.7-5c-0.3-1.5-0.5-3.2-0.7-4.9c-0.3-3.2-0.3-6.3-0.1-9.6
				c0.2-3.2,0.7-6.4,1.5-9.6c0.8-3.1,1.9-6,3.3-8.6c1.4-2.6,3.1-4.8,5.1-6.6c2-1.8,4.4-3,7.2-3.6c0.5-0.1,1.4-0.2,2.6-0.3
				c1.3-0.1,2.6,0.1,4,0.7c1.4,0.5,2.9,1.6,4.3,3.1c1.4,1.5,2.6,3.8,3.5,6.8c0.4,1.2,0.7,3.1,1,5.6c0.3,2.5,0.5,5.4,0.5,8.7
				c0,3.2-0.3,6.6-0.8,10c-0.5,3.5-1.4,6.7-2.7,9.8c-1.3,3.1-3.1,5.7-5.4,8c-2.3,2.3-5.1,3.7-8.6,4.5c-2,0.4-3.8,0.4-5.4,0
				c-1.5-0.4-2.8-1.1-3.9-2.1c-1.1-1-2-2.2-2.7-3.6c-0.6-1.2-1.2-2.5-1.6-3.9c-0.7,1.9-1.4,3.6-2.2,5.2c-1.3,2.7-4.5,6.2-6,7.9
				c-1.5,1.7-3,2.8-4.6,3.1c-1.2,0.3-2.3,0.1-3.1-0.6c-0.8-0.7-1.4-1.6-1.7-2.6c-0.2-0.6-0.3-1.3-0.4-1.9c-0.1-0.6-0.1-1.2-0.2-1.7
				c0-0.6,0-1.2,0-1.8l-0.1-1.4C103.7,86.4,103.6,87.4,103.5,87.8z M103.8,47c-0.2-0.5-0.4-0.9-0.7-1.2c-0.3-0.3-0.6-0.5-0.9-0.5
				c-0.4-0.1-0.7-0.1-1.1,0c-0.9,0.2-1.8,1.3-2.5,3.2c-0.7,1.9-1.4,4.3-1.9,7.2c-0.5,2.9-0.9,6.1-1.2,9.5c-0.3,3.5-0.4,6.9-0.5,10.2
				c0,3.3,0,6.4,0.2,9.1c0.2,2.8,0.6,4.9,1,6.4c0.5,1.5,1.1,2.2,1.7,2c0.2-0.1,0.6-0.2,1-0.5c0.4-0.3,0.9-0.8,1.3-1.7
				c0.4-0.8,0.8-2,1.3-3.5c0.4-1.5,0.7-3.6,0.8-6.2l1.5-31.9C104,48.2,104,47.5,103.8,47z M141.6,42.9c-0.1-2.9-0.3-4.9-0.6-6
				c-0.2-0.6-0.4-1-0.7-1.2c-0.3-0.2-0.6-0.4-0.9-0.5c-0.3-0.1-0.6-0.1-0.9-0.1c-0.3,0-0.4,0-0.5,0.1c-1.1,0.2-2.1,1.5-2.9,3.9
				c-0.8,2.4-1.5,5.3-2,8.7c-0.5,3.5-0.9,7.2-1.2,11.3c-0.3,4.1-0.4,8-0.5,11.6c-0.1,3.6-0.1,6.8,0.1,9.6c0.1,2.8,0.3,4.5,0.5,5.3
				c0.1,0.5,0.4,0.9,0.6,1.2c0.2,0.3,0.5,0.5,0.8,0.7c0.3,0.2,0.8,0.2,1.4,0.1c0.9-0.2,1.8-1.4,2.6-3.7c0.8-2.3,1.4-5.1,2-8.4
				c0.6-3.3,1-7,1.4-11c0.4-4,0.6-7.9,0.8-11.5C141.6,49,141.7,45.8,141.6,42.9z"/>
		</defs>
		<use xlink:href="#SVGID_3_"  style="overflow:visible;fill:#FFFFFF;"/>
		<clipPath id="SVGID_4_">
			<use xlink:href="#SVGID_3_"  style="overflow:visible;"/>
		</clipPath>
	</g>
	<path class="st0" d="M33.2,141.7c-7.6,2.9-15,5.9-22.3,9.5c-2.5,1.2-4.7,3.8-6.9,6.2c-1.1,1.2-2.1,2.3-2.6,2.9
		c20.9-9.7,43.1-17,65.1-23.7c56.8-17.3,115.8-27.3,175.1-30.9c45.9-2.8,86.6-1.1,130.7,3.7l9.9-14.4
		C264.6,82.4,143.9,99.4,33.2,141.7z"/>
</g>
</svg>
