<?xml version="1.0" encoding="utf-8"?>
<!-- Generator: Adobe Illustrator 24.0.1, SVG Export Plug-In . SVG Version: 6.00 Build 0)  -->
<svg version="1.1" xmlns="http://www.w3.org/2000/svg" xmlns:xlink="http://www.w3.org/1999/xlink" x="0px" y="0px"
	 viewBox="0 0 391.9 166.4" style="enable-background:new 0 0 391.9 166.4;" xml:space="preserve">
<style type="text/css">
	.st0{fill:#FFFFFF;}
	.st1{fill:#FFC20E;}
	.st2{fill-rule:evenodd;clip-rule:evenodd;fill:#FFFFFF;}
</style>
<g id="Layer_1">
	<g>
		<g>
			<path class="st0" d="M96.1,48.4L91,35.8l5.7-2.3c3.2-1.3,5.8-0.7,7.1,2.5c1.2,3-0.2,5.3-3.4,6.6l-3.2,1.3l1.4,3.5L96.1,48.4z
				 M99.5,40.4c1.8-0.7,2.4-1.8,1.8-3.3c-0.7-1.7-1.8-2-3.6-1.3L94.4,37l1.9,4.6L99.5,40.4z"/>
			<path class="st0" d="M120.6,38.6c0,0-0.6,1-2.1,1.5c-1.7,0.6-2.6,0.2-3.7-1l-2-2c-0.2,0.1-0.4,0.2-0.6,0.2l-2.3,0.8l1.5,4.3
				l-2.6,0.9l-4.4-12.8l5.2-1.8c3.4-1.2,5.6-0.3,6.5,2.5c0.6,1.8,0.3,3.3-1,4.5l1.9,1.9c0.5,0.4,0.9,0.5,1.4,0.3
				c0.5-0.2,1-0.6,1-0.6L120.6,38.6z M111.4,35.1c2-0.7,2.5-1.6,2.1-3c-0.4-1.3-1.4-1.7-3-1.1l-2.8,0.9l1.4,4L111.4,35.1z"/>
			<path class="st0" d="M128.5,37.3c-4.9,1.3-8-1.2-9-4.8c-1.1-4,0.8-7.5,5.3-8.7c4.5-1.2,7.9,0.8,9,4.8
				C134.8,32.3,133.4,36,128.5,37.3z M125.4,26.1c-2.8,0.8-4,3-3.3,5.6c0.7,2.4,2.6,4.1,5.7,3.2c3.1-0.9,3.9-3.3,3.3-5.7
				C130.4,26.7,128.2,25.4,125.4,26.1z"/>
			<path class="st0" d="M137.6,34.6l-2.7-13.2l5.2-1.1c4.6-1,7.6,0.8,8.5,5.2c0.9,4.4-1.4,7.1-5.8,8L137.6,34.6z M142.1,31.3
				c3.1-0.6,4.5-2.2,3.9-5.2c-0.6-3-2.5-4-5.7-3.3l-2.2,0.5l1.8,8.5L142.1,31.3z"/>
			<path class="st0" d="M159.1,17l2.7-0.4l1.1,7.7c0.6,4.3-0.9,6.2-5,6.8c-4,0.6-6.1-0.7-6.7-5.1l-1.1-7.7l2.7-0.4l1.1,7.8
				c0.4,2.5,1.5,3.4,3.7,3.1c2.2-0.3,3-1.4,2.7-4L159.1,17z"/>
			<path class="st0" d="M175.6,18.8c0,0-1.8-1.1-4.9-0.8c-2,0.2-2.8,0.9-2.7,1.8c0.1,1.1,1.6,1.4,3.4,1.5c3.7,0.3,5.6,1,5.8,3.7
				c0.2,2.3-1.6,4.2-5.5,4.6c-4.5,0.4-6.3-1.4-6.3-1.4l1-2.2c0,0,1.9,1.5,5.1,1.2c1.9-0.2,2.9-0.9,2.8-1.8c-0.1-0.9-0.7-1.2-3.3-1.4
				c-3.1-0.3-5.7-0.8-6-3.7c-0.2-2.2,1.5-4.3,5.3-4.6c3.6-0.3,5.9,0.8,5.9,0.8L175.6,18.8z"/>
			<path class="st0" d="M193.2,28.2l-1.2-3l-5.7,0.1l-1.1,3l-2.9,0.1l5.1-13.6l3-0.1l5.6,13.4L193.2,28.2z M189,17.8l-1.9,5.3l4-0.1
				L189,17.8z"/>
			<path class="st0" d="M206.7,15l2.7,0.1l-0.3,7.8c-0.2,4.4-2,5.9-6.2,5.8c-4-0.2-5.8-1.8-5.7-6.2l0.3-7.8l2.7,0.1l-0.3,7.9
				c-0.1,2.5,0.8,3.6,3.1,3.7c2.2,0.1,3.3-0.8,3.3-3.4L206.7,15z"/>
			<path class="st0" d="M215.7,29.2l1-11.1l-5.3-0.5l0.2-2.3l13.4,1.2l-0.2,2.3l-5.4-0.5l-1,11.1L215.7,29.2z"/>
			<path class="st0" d="M231.3,31.4c-5-0.8-6.8-4.3-6.3-8.1c0.6-4.1,3.8-6.5,8.4-5.8c4.6,0.7,6.9,3.9,6.3,8
				C239.1,29.3,236.3,32.1,231.3,31.4z M233,19.9c-2.9-0.4-4.9,1.1-5.3,3.8c-0.4,2.5,0.7,4.8,3.9,5.3c3.2,0.5,4.9-1.4,5.3-3.9
				C237.3,22.4,235.9,20.3,233,19.9z"/>
			<path class="st0" d="M249.8,34.6l1.1-5.3l-6.4-1.4l-1.1,5.3l-2.7-0.6l2.9-13.2l2.7,0.6l-1.2,5.6l6.4,1.4l1.2-5.6l2.7,0.6
				l-2.9,13.2L249.8,34.6z"/>
			<path class="st0" d="M259.2,37l3-10.7l-5.1-1.4l0.6-2.3l12.9,3.6l-0.6,2.3l-5.2-1.4l-3,10.7L259.2,37z"/>
			<path class="st0" d="M274.1,41.9c-4.8-1.7-6-5.5-4.7-9.1c1.3-3.9,4.9-5.7,9.3-4.2c4.4,1.5,6.1,5.1,4.7,9
				C282.2,41.2,278.9,43.5,274.1,41.9z M277.9,30.9c-2.8-0.9-5,0.2-5.9,2.8c-0.8,2.4-0.2,4.8,2.9,5.9c3.1,1.1,5.1-0.5,5.9-2.9
				C281.7,34.1,280.6,31.8,277.9,30.9z"/>
			<path class="st0" d="M292.2,48.5l-3.1-10.7l-3.3,8l-2.5-1l5.2-12.5l2,0.8l3,10.9l3.4-8.2l2.5,1l-5.2,12.5L292.2,48.5z"/>
		</g>
		<path class="st1" d="M338.8,46.8c-43.3-27.6-93.5-42.1-145-42.1C143.4,4.7,94.3,18.6,51.7,45l-1.6-2.6
			C93.1,15.7,142.8,1.6,193.7,1.6c52.2,0,102.9,14.7,146.7,42.6L338.8,46.8z"/>
	</g>
	<g>
		<g>
			<g>
				<path class="st1" d="M115.2,163.1v-14.9h7.2c4,0,6.5,1.7,6.5,5.5c0,3.6-2.5,5.3-6.5,5.3h-4v4.1H115.2z M122.3,156.4
					c2.2,0,3.3-0.9,3.3-2.7c0-2-1.1-2.9-3.3-2.9h-4v5.5H122.3z"/>
				<path class="st1" d="M141.3,163.5c-5.9,0-8.6-3.6-8.6-7.8c0-4.6,3.2-7.7,8.6-7.7c5.4,0,8.6,3.2,8.6,7.7
					C149.9,159.9,147.1,163.5,141.3,163.5z M141.3,150.6c-3.4,0-5.4,2-5.4,5.1c0,2.8,1.6,5.1,5.4,5.1c3.8,0,5.4-2.3,5.4-5.1
					C146.7,152.6,144.6,150.6,141.3,150.6z"/>
				<path class="st1" d="M158,157.1v6h-3.2v-14.9h12.5v2.6H158v3.9h7.5v2.4H158z"/>
				<path class="st1" d="M176.4,163.1v-12.3h-6.2v-2.6h15.6v2.6h-6.3v12.3H176.4z"/>
				<path class="st1" d="M199.3,163.1l-1.3-3.3h-6.6l-1.3,3.3h-3.4l6.2-14.9h3.5l6.2,14.9H199.3z M197.7,144c0,2-1.2,3.1-3,3.1
					c-1.8,0-3-1.1-3-3.1h2c0,0.9,0.4,1.3,1,1.3c0.7,0,1.1-0.4,1.1-1.3H197.7z M194.7,151.5l-2.3,5.8h4.7L194.7,151.5z"/>
				<path class="st1" d="M213.9,163.1v-14.9h7.3c3.6,0,5.1,1.6,5.1,3.8c0,2.2-1.3,3.2-2.5,3.5c2.4,0.4,3.3,1.6,3.3,3.7
					c0,2.5-2.3,4-5.5,4H213.9z M217,150.8v3.6h3.9c1.1,0,2.1-0.6,2.1-2c0-1-0.7-1.7-2.1-1.7H217z M217,156.7v3.8h4.3
					c1.6,0,2.5-0.6,2.5-1.8c0-1.4-1.1-1.9-2.7-1.9H217z"/>
				<path class="st1" d="M242.4,148.2h3.2v8.6c0,4.8-2.1,6.6-6.9,6.6c-4.7,0-6.8-1.8-6.8-6.6v-8.6h3.1v8.7c0,2.8,1.1,3.9,3.7,3.9
					s3.7-1,3.7-3.9V148.2z"/>
				<path class="st1" d="M262.5,163.1l-8.1-9.6v9.6h-3.2v-14.9h2.6l8,9.9v-9.9h3.2v14.9H262.5z"/>
				<path class="st1" d="M281.9,163.1l-1.3-3.3h-6.6l-1.3,3.3h-3.4l6.2-14.9h3.5l6.2,14.9H281.9z M280.3,144c0,2-1.2,3.1-3,3.1
					c-1.8,0-3-1.1-3-3.1h2c0,0.9,0.4,1.3,1,1.3c0.7,0,1.1-0.4,1.1-1.3H280.3z M277.2,151.5l-2.3,5.8h4.7L277.2,151.5z"/>
			</g>
			<rect x="64.3" y="155" class="st0" width="30.2" height="1.2"/>
			<rect x="303.7" y="155" class="st0" width="30.2" height="1.2"/>
		</g>
	</g>
</g>
<g id="Layer_2">
	<g>
		<path class="st2" d="M384.7,117c-2.1,0-3.7,1.7-3.7,3.7c0,2,1.5,3.7,3.7,3.7c2,0,3.7-1.7,3.7-3.7C388.4,118.7,386.7,117,384.7,117
			L384.7,117z M384.6,117.6c0,0,0,0,0.2,0c1.5,0,2.9,1.4,2.9,3c0,1.7-1.4,3-2.9,3c-1.7,0-3-1.4-3-3
			C381.7,119,382.9,117.8,384.6,117.6L384.6,117.6z M383.2,118.5v4.3h0.8l0-1.8h0.6l1.2,1.8l0.6,0l-1.1-1.8c0.6-0.2,1.1-0.6,1.1-1.2
			c0-0.8-0.6-1.2-1.5-1.2H383.2L383.2,118.5z M384,120.4v-1.2h0.8c0.6,0,0.9,0.1,0.9,0.6c0,0.5-0.3,0.6-0.8,0.6L384,120.4L384,120.4
			z"/>
		<g>
			<path class="st0" d="M62.7,103.1c0-2.2-0.1-3.7-0.2-4.3c-0.4-1.7-1.6-2.6-3.6-2.6v-0.8c5.9-0.7,10.5-1.5,13.5-2.4V112
				c0,8.9,2.4,13.4,7.1,13.4c2.5,0,4.6-1.2,6.2-3.6c1.6-2.4,2.3-5.7,2.3-9.8l0-8.9c0-2.2-0.1-3.7-0.2-4.3c-0.4-1.7-1.6-2.6-3.6-2.6
				v-0.8C89.4,94.8,94,93.9,98,93l-0.1,8.4l0,10.8c0,5.4,0.3,9.2,0.8,11.4c0.5,2.1,1.8,3.4,3.7,3.8l0,1.2l-9-0.1h-3.5
				c-0.3-1-0.7-2.3-1-3.9c-0.2-0.8-0.3-1.5-0.5-2.3c-2.3,4.8-6.3,7.1-12.1,7.1c-9.1,0-13.6-5.6-13.6-16.7V103.1z"/>
			<path class="st0" d="M104.4,125.7l3.8-11.2l1,0.1c1.5,8.4,5.3,12.7,11.4,12.7c2.4,0,4.3-0.6,5.8-1.8c1.5-1.2,2.2-2.8,2.2-4.8
				c0-1.8-0.7-3.2-2.2-4.1c-1.1-0.7-3.4-1.5-6.7-2.3c-4.7-1.2-7.9-2.4-9.6-3.7c-2.1-1.6-3.2-3.9-3.2-7c0-3.3,1.5-5.9,4.4-8
				c3.1-2.2,7.3-3.3,12.4-3.3c4.9,0,9.5,1,13.7,3l-3.1,9.3l-0.9-0.1c-1-3.3-2.3-5.8-4.2-7.6c-1.8-1.7-4-2.6-6.4-2.6
				c-1.9,0-3.4,0.6-4.8,1.8c-1.3,1.2-2,2.6-2,4.2c0,1.6,0.5,2.9,1.5,3.7c0.8,0.6,3.7,1.5,8.7,2.7c4.5,1,7.7,2.2,9.5,3.6
				c2.1,1.6,3.1,3.9,3.1,7c0,3.8-1.6,6.8-4.9,9.1c-3.3,2.2-7.8,3.4-13.7,3.4C114.6,129.4,109.3,128.2,104.4,125.7z"/>
			<path class="st0" d="M157.2,111.9c0,5.6,0.2,9.3,0.7,11.2c0.6,2.5,1.9,4.1,3.9,4.7v0.8l-11.7-0.1c-1.1-0.5-1.8-1.5-2.1-3.1
				c-0.3-1.5-0.5-4.1-0.5-7.6l0-4.9l0-16.5h-3.8l0.3-2c5.5-2.9,9.6-6.9,12.3-11.9h1.1c-0.2,2.4-0.3,5.2-0.3,8.6l0,2.4l7.8,0
				l-0.8,2.9l-7,0L157.2,111.9z"/>
			<path class="st0" d="M170.8,89c0-2.7-0.2-4.4-0.5-5.2c-0.5-1.1-1.6-1.7-3.3-1.7l0-0.8c5.4-0.7,10-1.5,13.8-2.5
				c0,2.3,0,4.4-0.1,6.5c-0.1,2.1-0.1,4.1-0.2,5.9l0,23.5c0,3.9,0.1,6.3,0.2,7.3c0.4,3.1,1.8,5,4.1,5.6l0,0.8c-1.1,0-2.9,0-5.4-0.1
				c-2.5-0.1-3.8-0.1-4-0.1c-0.9,0-2.5,0-4.8,0.1c-2.4,0.1-3.8,0.1-4.3,0.1l0-0.8c1.9-0.6,3.2-1.9,3.7-3.9c0.4-1.5,0.6-4.3,0.6-8.6
				L170.8,89z"/>
			<path class="st0" d="M226.4,127.4v1.2l-8.4-0.1h-3c-1.1-1.7-1.9-3.6-2.4-5.6c-2.4,4.3-6.2,6.5-11.2,6.5c-4.2,0-7.6-1-10.2-3
				c-2.6-2-3.8-4.6-3.8-7.8c0-7.9,8.1-11.9,24.4-11.9v-0.3c0-8.2-2.7-12.2-8.1-12.2c-2.7,0-4.8,0.9-6.5,2.8c-1.7,1.8-3,4.8-4,8.8h-1
				l-3.1-10.1c5-2.4,10.3-3.5,16-3.5c3.2,0,6,0.4,8.3,1.2c2.3,0.8,4.2,1.9,5.5,3.3c1.3,1.5,2.2,3.1,2.5,4.9c0.3,1.8,0.5,4.4,0.5,7.7
				v3.1c0,5.4,0.3,9.2,0.8,11.4C223.2,125.8,224.4,127,226.4,127.4z M211.8,108.7l-1.6-0.1c-3.7,0-6.5,0.8-8.4,2.5
				c-1.9,1.7-2.9,4.1-2.9,7.2c0,2.4,0.5,4.4,1.6,5.8c1,1.4,2.4,2.1,4.1,2.1c2.6,0,4.4-1.3,5.5-3.8c1.1-2.5,1.7-6.4,1.7-11.7V108.7z"
				/>
			<path class="st0" d="M230.6,128.6v-0.7c2-0.6,3.2-2,3.8-4.1c0.4-1.5,0.6-4.5,0.6-9v-11.6c0-2.7-0.2-4.4-0.5-5.2
				c-0.5-1.1-1.6-1.7-3.3-1.7l0-0.7c5.1-0.6,9.5-1.4,13-2.4l0,7.8c2.4-5.8,6.4-8.6,12.2-8.6c4.7,0,8.2,1.4,10.4,4.1
				c2.2,2.7,3.4,6.9,3.4,12.5l0,6c0,4.5,0.2,7.5,0.6,9c0.6,2.1,1.9,3.5,3.8,4.1l0,0.7c-1.1,0-2.9,0-5.4-0.1c-2.5-0.1-3.8-0.1-4-0.1
				c-0.9,0-2.5,0-4.9,0.1c-2.4,0.1-3.8,0.1-4.3,0.1l0-0.7c1.9-0.6,3.1-1.9,3.7-3.8c0.5-1.5,0.7-4.3,0.7-8.2v-6.5
				c0-8.9-2.4-13.4-7.2-13.4c-2.5,0-4.6,1.2-6.2,3.6c-1.6,2.4-2.4,5.7-2.4,9.8l0,4.8c0,4,0.1,6.6,0.2,7.7c0.4,3.3,1.8,5.3,4.2,6v0.7
				c-1.1,0-2.9,0-5.4-0.1c-2.5-0.1-3.8-0.1-4-0.1c-0.9,0-2.5,0-4.9,0.1C232.5,128.6,231.1,128.6,230.6,128.6z"/>
			<path class="st0" d="M306.3,123.2c-2.7,4.1-6.6,6.2-11.7,6.2c-5.3,0-9.6-1.7-13-5.1c-3.3-3.4-5-7.8-5-13.3c0-5.3,1.7-9.8,5-13.4
				c3.4-3.6,7.5-5.4,12.5-5.4c4.7,0,8.5,1.8,11.5,5.4l0-8.5c0-2.3,0-3.7-0.1-4.3c-0.3-1.8-1.5-2.7-3.4-2.7v-0.8
				c5-0.7,9.5-1.6,13.4-2.5c0,1.8,0,3.7-0.1,5.8c-0.1,2.1-0.1,4.3-0.2,6.7v21.3c0,9.5,1.4,14.6,4.3,15.2l0,0.7c-0.7,0-1.7,0-3-0.1
				c-1.3,0-2.3-0.1-2.9-0.1c-0.9,0-1.7,0-2.5,0c-0.8,0-1.6,0-2.6,0.1C307.7,127,306.9,125.2,306.3,123.2z M296.7,95
				c-2.9,0-5.1,1.4-6.7,4c-1.6,2.7-2.4,6.6-2.4,11.8c0,5.3,0.8,9.2,2.4,11.9c1.6,2.7,3.9,4.1,6.9,4c2.9,0,5-1.3,6.6-4
				c1.5-2.7,2.3-6.7,2.3-12C305.7,100.3,302.7,95,296.7,95z"/>
			<path class="st0" d="M335.7,93c0,2,0,4.6-0.1,7.7c-0.1,3.1-0.1,4.7-0.1,4.8l0,9.4c0,3.8,0.1,6.3,0.2,7.3c0.4,3.1,1.8,5,4.2,5.6
				v0.8c-1.1,0-2.9,0-5.4-0.1c-2.5-0.1-3.8-0.1-4-0.1c-0.9,0-2.5,0-4.8,0.1c-2.4,0.1-3.8,0.1-4.3,0.1l0-0.8c1.9-0.6,3.2-1.9,3.7-3.9
				c0.4-1.4,0.6-4.3,0.6-8.5l0-12.2c0-2.7-0.2-4.4-0.5-5.2c-0.5-1.1-1.6-1.7-3.3-1.7l0-0.8c2.7-0.4,5.1-0.7,7.4-1.1
				C331.5,93.9,333.7,93.5,335.7,93z M325.2,84.3c0-1.5,0.5-2.8,1.5-3.9c1-1,2.3-1.6,3.8-1.6c1.5,0,2.7,0.5,3.8,1.5
				c1,1,1.5,2.3,1.5,3.9c0,1.5-0.5,2.8-1.5,3.9c-1,1-2.3,1.6-3.8,1.6c-1.6,0-2.9-0.5-3.8-1.5C325.6,87.2,325.2,85.9,325.2,84.3z"/>
			<path class="st0" d="M381.3,127.4v1.2l-8.4-0.1l-3,0c-1.1-1.7-1.9-3.6-2.4-5.6c-2.5,4.3-6.2,6.5-11.2,6.5c-4.2,0-7.6-1-10.2-3
				c-2.6-2-3.8-4.6-3.8-7.8c0-7.9,8.1-11.9,24.4-11.9l0-0.3c0-8.2-2.7-12.2-8.1-12.2c-2.7,0-4.8,0.9-6.5,2.8c-1.7,1.8-3,4.8-4.1,8.8
				h-1L344,95.6c5-2.4,10.3-3.5,16-3.5c3.2,0,6,0.4,8.3,1.2c2.3,0.8,4.2,1.9,5.5,3.3c1.3,1.5,2.2,3.1,2.5,4.9
				c0.3,1.8,0.5,4.4,0.5,7.7l0,3.1c0,5.4,0.3,9.2,0.8,11.4C378.1,125.8,379.3,127,381.3,127.4z M366.7,108.7l-1.6-0.1
				c-3.7,0-6.5,0.8-8.4,2.5c-1.9,1.7-2.9,4.1-2.9,7.2c0,2.4,0.5,4.4,1.6,5.8c1,1.4,2.4,2.1,4.1,2.1c2.6,0,4.4-1.3,5.5-3.8
				c1.1-2.5,1.7-6.4,1.7-11.7V108.7z"/>
		</g>
		<path class="st2" d="M195.9,67.9c-7.3,3.1-10.6,8.7-13.3,15.3c3-3.1,8.8-7.6,19.1-9.3c0,0-14,6.6-18.4,13.6
			c4.7,1.4,9.8,2.6,14.7,2.1c5.6-0.6,11-4.3,14.8-8.3c2.3-2.5,4.2-5.1,5.9-8.1c0.9-1.6,1.7-3.8,3.1-6.4
			C212.3,66.3,203.7,64.7,195.9,67.9z"/>
		<path class="st0" d="M57.1,103.3c-0.7-1.8-1.8-3.4-3.3-4.8c-2-1.8-4.8-3.9-9.1-5c-0.1,0-0.2-0.1-0.3-0.1c-2-0.5-4.4-0.8-7.2-0.8
			c-1.6,0-3.3,0.2-4.8,0.6c-0.9,0.2-1.7,0.5-2.6,0.8c-0.6,0.2-1.2,0.5-1.8,0.8c-0.4,0.2-0.8,0.4-1.2,0.7c-2.9,1.9-4.5,4.4-5.1,7.7
			c0,0,0,0.1,0,0.1c-0.1,0.7-0.2,1.5-0.2,2.2c0,0.4,0,0.8,0.1,1.2c0.7,9.1,10.6,9.3,10.6,9.3H33l0,0c3.4,0,5.8-1.6,7.1-3.3
			c1.8-2.2,2.3-5.3,2.1-7.9c-1.9,1.3-4.3,2-6.8,1.6v0c0,0-0.1,0-0.1,0c-0.2,0-0.4-0.1-0.5-0.1l0,0c-0.2-0.1-0.3-0.1-0.5-0.2l-0.1,0
			c-0.2-0.1-0.4-0.2-0.5-0.3c-1.1-0.7-1.8-2-1.8-3.4c0-2.2,1.8-4,3.9-4.1c0.3,0,0.5-0.1,0.8-0.1c0.3,0,0.5,0,0.8,0.1
			c1.8,0.2,3.3,1.2,4.4,2.6c0.6,0.8,1.2,1.7,1.6,2.7c0.1,0.3,0.2,0.6,0.3,0.8c0.6,1.8,0.9,3.8,0.9,6.2c0,0.6,0,1.2-0.1,1.8
			c-0.1,0.5-0.2,1.2-0.3,1.9c-0.1,0.6-0.3,1.2-0.4,1.7c-2.1,7.3-6.5,10.9-13,10.9c-5.7,0-9.7-2.8-12.1-8.5c-1.6-3.9-2.4-9-2.4-15.5
			c0-4.9,0.4-9,1.3-12.4c0.6-2.2,1.3-4.1,2.2-5.6c2.3-3.9,6-5.9,11-5.9c13.7,0,17.5,13.8,17.5,13.8h0.8l0,0l0,0l3.4-11.9
			c-2.3-1-4.6-1.8-6.8-2.5c-6-1.8-9.3-2-11.4-2.1C34,76,33,76,32.7,76c-0.4,0-1.1,0-1.1,0c-1,0-1.9,0-2.9,0.1
			c-7.2,0.5-13.3,2.8-18.1,7.1c-1,0.9-2,1.9-2.8,2.8c-0.1,0.1-0.2,0.3-0.4,0.4c-0.1,0.1-0.2,0.3-0.3,0.4c-3,3.7-4.8,8-5.3,12.9
			c-0.1,0.9-0.1,1.9-0.1,2.9c0,3.7,0.8,7.3,2.3,10.7c1.5,3.4,3.7,6.3,6.4,8.7c2.7,2.4,5.8,4.2,9.2,5.4c1.9,0.7,3.9,1.1,6,1.4
			c1.7,0.2,3.4,0.4,5.3,0.4c2.3,0,4.6-0.2,6.8-0.7c5-0.8,9.2-2.4,12.6-4.9c0.1-0.1,0.3-0.2,0.4-0.3c3.8-2.9,6.1-6.3,7-10.2
			c0.3-1.3,0.5-2.6,0.5-4C58.1,107,57.8,105.1,57.1,103.3z"/>
	</g>
</g>
</svg>
