<?xml version="1.0" encoding="utf-8"?>
<!-- Generator: Adobe Illustrator 24.0.1, SVG Export Plug-In . SVG Version: 6.00 Build 0)  -->
<svg version="1.1" xmlns="http://www.w3.org/2000/svg" xmlns:xlink="http://www.w3.org/1999/xlink" x="0px" y="0px"
	 viewBox="0 0 500 88.3" style="enable-background:new 0 0 500 88.3;" xml:space="preserve">
<style type="text/css">
	.st0{fill:#225595;}
	.st1{display:none;}
	.st2{display:inline;fill:#225595;}
	.st3{display:inline;fill:#CC7E3C;}
	.st4{display:inline;fill:#F0AA63;}
	.st5{display:inline;fill:#FFFFFF;}
</style>
<g id="Layer_1">
	<path class="st0" d="M149,26.6c-2.9-8.5-11.3-11.6-18.3-11.7c-3.4,0-6.9,0-10.3,0l-8.6,0c-3.4,0-5.9,2.1-6.9,5.9
		c-0.7,2.7-1.3,5.4-1.8,8.1l-0.1,0.3c-1.5,7.3-2.5,15.3-3,23.7c-0.3,5.2-0.4,10.4-0.3,15.6c0.1,2.5,0.2,5,0.3,7.5c0,0.4,0,0.9,0,1.4
		c0,1.9,0,4.3,1.3,5.8c1.1,1.3,2.6,1.4,3.9,1.4c0.3,0,0.6,0,0.8,0c0.3,0,0.5,0,0.7,0l12.2,0c1.3,0,2.3-0.4,2.9-1.2
		c0.9-1.1,1.1-2.8,0.7-5.3l-1.1-6.2c-0.1-0.4-0.2-0.8-0.2-1.2c-0.5-2.3-1-4.9-0.3-7c0.3-0.9,1.3-1.4,2.3-1.9
		c0.3-0.1,0.6-0.3,0.8-0.4c1.5-0.8,2.9-1.7,4.4-2.5c4.9-2.8,10.5-6.3,15.3-11C149.4,42.2,151.4,33.7,149,26.6L149,26.6z M119.2,45.4
		L119.2,45.4c-0.8,0-1-0.2-1-1.9c0-6.6,0.8-10.6,2.5-12.3c1.2-1.2,2.7-1.3,4.5-1.3c1.9,0,6.4,0.5,6.4,4.7
		C131.5,38.2,122.1,45.4,119.2,45.4L119.2,45.4z M88.2,67.3c0.1,3.5,0.1,7.1,0,10.7c0,0.2,0,0.4,0,0.6c0,1.1,0,2.5-0.7,3.5
		c-1.2,1.7-3.1,1.8-4.4,1.9c-3.2,0.2-6.4,0.4-9.9,0.4c-0.6,0-1.2,0-1.8,0.1c-1.4,0-2.8,0.1-4.2,0.1c-2.6,0-6-0.1-9.2-1.2
		c-4-1.3-6.9-3.9-8.5-7.6c-2.2-5-1.7-11.5,1.1-17.4c3.6-7.4,10.1-10.7,21.1-10.7c0.2,0,0.4,0,0.4-0.7c0-1.3-1.5-3.7-4.2-3.7
		c-1.2,0-2.6,0.5-4,1.5c-0.3,0.2-0.6,0.4-0.9,0.7c-2.2,1.6-5,3.6-7.8,3.1c-2.1-0.4-3.8-1.3-4.8-2.8c-1.1-1.5-1.4-3.5-1-5.8
		c1.6-8.6,10.8-11.7,18.3-11.7c3.9,0,7.7,0.8,10.4,2.2c10.4,5.4,10.3,18.3,10.1,28.6c0,1.7,0,3.3,0,4.9C88.1,65,88.1,66.1,88.2,67.3
		L88.2,67.3z M73,63c0-1.1,0-2.3-0.5-2.8c-0.2-0.3-0.7-0.4-1.3-0.4c-3,0-6.4,2.5-6.4,5.8c0,3,2.7,4.5,5.3,4.5c2.7,0,2.8-0.9,2.8-3.9
		L73,63L73,63L73,63z M192.7,71.1c-0.6-2.2-1.2-4.2-1.9-6.4c-0.9-2.6-2.3-3.9-4.3-3.9c-2.1,0-4.4,1.7-6.5,3.1
		c-0.6,0.5-1.2,0.9-1.8,1.2c-1.9,1.2-3.5,1.8-4.8,1.8h0c-1,0-1.9-0.4-2.6-1.2c-3.2-3.7-1.9-14.7-1.5-17.9c0.8-5.7,2.6-11.5,4.5-17.3
		c0.1-0.3,0.3-0.8,0.5-1.4c1.3-3.5,3.6-9.9,1.6-12.9c-0.7-1-1.9-1.6-3.4-1.6h-12.2c-5.2,0-7,11-7.9,16.3c-0.1,0.4-0.1,0.8-0.2,1.1
		c-1.2,7.1-2.2,15-2.8,23.6c-0.2,2.7-1.2,16.7,0.3,23.1c1.4,6.2,9.8,6.2,12.6,6.2h0c1.5,0,2.8-0.1,4.1-0.1c0.9,0,1.6-0.1,2.2-0.1
		c2.4,0,4.3-0.1,6.2-0.2c1.7-0.1,3.5-0.1,5.8-0.2l0.6,0l2.1,0c2.6,0,5.6,0,7.5-0.4c1.2-0.2,2.2-0.9,2.8-1.8c1.6-2.6,0.3-7-0.5-9.9
		C192.9,71.9,192.8,71.5,192.7,71.1L192.7,71.1z M45.9,71.1c0.1,0.4,0.2,0.8,0.4,1.3c0.8,2.9,2.1,7.4,0.5,9.9
		c-0.6,1-1.5,1.6-2.8,1.8c-1.9,0.4-4.8,0.4-7.5,0.4l-2.1,0l-0.6,0c-2.2,0-4,0.1-5.8,0.2c-1.9,0.1-3.8,0.2-6.2,0.2
		c-0.6,0-1.4,0-2.2,0.1c-1.2,0.1-2.6,0.1-4.1,0.1c-2.8,0-11.3,0-12.7-6.2c-1.4-6.4-0.5-20.3-0.3-23.1c0.6-8.6,1.6-16.5,2.8-23.6
		c0.1-0.3,0.1-0.7,0.2-1.1c0.9-5.3,2.6-16.3,7.9-16.3h12.2c1.5,0,2.7,0.5,3.4,1.6c2.1,3-0.3,9.4-1.6,12.9c-0.2,0.6-0.4,1-0.5,1.4
		c-1.9,5.9-3.7,11.6-4.5,17.3c-0.5,3.3-1.8,14.2,1.5,17.9c1.5,1.8,4,1.5,7.4-0.6c0.6-0.4,1.1-0.8,1.8-1.2c2-1.5,4.3-3.1,6.5-3.1
		c1.9,0,3.4,1.3,4.3,3.9C44.8,67,45.4,68.9,45.9,71.1L45.9,71.1z M473.9,32.2c0.4,0,0.8,0,1.1,0.1c1.8,0.2,3.6,1.3,5.5,2.4
		c2.4,1.4,4.8,2.8,7.5,2.8c0.9,0,1.8-0.2,2.7-0.5c3.2-1.2,4.1-3,5.3-5.9c1.4-3.7,4.4-11.4-0.8-14.7c-1.6-1-4.4-1.5-8.5-1.5l-0.5,0
		c-5.1,0-10.2,0-15.2,0c-2.9,0-5.9,0-8.8,0c-8.3,0-9.4,9.4-10.3,16.3c-0.1,1.1-0.3,2.1-0.4,3c-2.1,13.2-2.8,26.3-2,39
		c0,0.4,0,0.8,0.1,1.3c0.1,3.8,0.4,8.9,5.3,9.9c1.1,0.2,2.3,0.3,3.8,0.3c1,0,2,0,3-0.1c0.9,0,1.9-0.1,2.7-0.1l10.1,0
		c3.8,0,8.3,0,12.9-0.1c2.7,0,4.4-0.7,5.5-1.9c1-1.2,1.3-2.8,1-4.9c-0.1-1-0.3-1.9-0.4-2.9c-0.7-5.1-1.3-9.9-3.9-11.9
		c-1-0.7-2.1-1.1-3.3-1.1c-2.5,0-5,1.5-7.5,3c-1.8,1.1-3.4,2.1-4.7,2.3c-2.1,0.3-3.7-0.1-4.6-1.2c-0.8-0.9-1.2-2.3-1.2-4.1
		c0-3.4,2.4-6.2,5.2-6.2c0.6,0,1.1,0.1,1.7,0.3c3.3,1.2,5.6,1.8,7.4,1.8c4.1,0,5-3,6.2-7.2c0.2-0.6,0.4-1.3,0.6-1.9
		c1.2-4,1.2-6.6-0.1-8.4c-2.2-2.9-7.4-3.2-17.1-0.7c-0.7,0.2-1.4,0.4-2,0.6c-1,0.3-1.9,0.6-2.5,0.6c-0.2,0-0.3,0-0.3-0.1
		c0,0-0.2-0.2,0-1.1C467.4,34.9,469.9,32.2,473.9,32.2L473.9,32.2z M393.2,27.7c-0.1-0.6-0.2-1.3-0.4-2c-0.8-4.6-1.9-10.8-7.8-10.8
		l-0.2,0c-0.5,0-1.1,0-1.7-0.1c-0.8,0-1.7-0.1-2.6-0.1c-2,0-8.1,0-8.1,5c0,1.3,0.7,5.3,1.6,9.9c0.5,2.4,0.9,4.9,1.3,7
		c-3.5-6.3-7.3-12.6-12.3-17.8c-3.6-3.7-6.6-4-10.7-4l-2,0c-8.3,0-9.3,10.7-9.9,16.4c-0.1,0.5-0.1,1-0.2,1.4
		c-0.9,8.1-3.8,42.1,0.3,48.9c1.7,2.9,4.1,3.3,6.5,3.3c1.2,0,2.5-0.1,4-0.2c1.5-0.1,3.1-0.3,5-0.3c1.3,0,2.4-0.6,3.3-1.5
		c2.6-3,1.9-9.7,1.5-13.3c0-0.4-0.1-0.8-0.1-1.1c-0.7-7.2-0.9-12.2-1.1-20c3.8,7.2,10.2,21.9,13.1,28.7c0.7,1.5,1.2,2.7,1.5,3.3
		c1.6,3.6,5.4,4.1,8.5,4.1c0.8,0,1.7,0,2.5-0.1c0.7,0,1.4-0.1,2.2-0.1c5.3,0,8.8-1.4,9.4-8.1c0.7-7.8,0.6-16.3-0.2-26.1
		C395.5,41.4,394.5,34.2,393.2,27.7L393.2,27.7z M450.1,24.4c-0.4-2.2-1.5-3.9-3.4-5.1C439.7,15,430.5,14,424,14
		c-3.6,0-7.4,0.3-10.9,0.8c-3,0.5-12,1.9-14.4,7.9c-0.9,2.3-1.2,4.2-1.4,5.3l-0.1,0.5c-0.4,2.4-0.6,8.2,1.4,10.5
		c0.6,0.7,1.3,1,2.1,1c1,0,2-0.5,3.2-1.6c5-4.4,8.2-6,9.5-6c0.2,0,0.3,0,0.4,0.1c0,0,0.2,0.2,0.1,0.9l-0.2,1.5
		c-0.9,5.3-3.3,19.5-3.8,28.6c-0.3,5.3-1,17.6,5.1,20.5c1.4,0.7,3.3,1,5.9,1c2.6,0,5.3-0.3,7.5-0.6c0.6-0.1,1.2-0.1,1.7-0.2
		c1.5-0.2,2.5-0.7,3.2-1.7c1.4-2.1,0.6-5.3,0-7.5l-0.1-0.3c-1.2-4.8-2.1-10.1-2.4-15.7c-0.3-5.2-0.2-10.8,0.3-16.9
		c0.2-2,0.6-4.2,1.2-6.5c0.1-0.5,0.6-2.1,0.9-2.1c0.2,0,0.6,0.1,1.7,0.9c0.6,0.4,1.2,1.1,1.8,1.7c1.5,1.5,3.3,3.3,5.3,3.3
		c1.2,0,2.4-0.7,3.5-2C448.3,34.1,450.8,28.7,450.1,24.4L450.1,24.4z M331.5,14.9l-0.4,0l-2.3,0c-4.3,0-8.5,0.5-10.6,3.8
		c-4.9,7.7-8,46.9-6.8,57.1c0.3,2.6,0.8,6.2,3.3,8.1c1.2,0.8,2.6,0.9,3.8,0.9c0.4,0,0.9,0,1.3,0c1,0,1.9,0,2.9,0
		c0.8,0,1.6,0.1,2.4,0.1c0,0,0,0,0,0c1.8,0,4.1-0.2,5.9-1.5c2.7-2.1,2.5-6.9,2.4-9.5c-0.2-5.8-0.2-18.7,1.9-39.7
		c0.2-2.3,0.6-4.4,0.9-6.5c0.8-5,1.5-8.9-0.4-11.1C335,15.4,333.6,14.9,331.5,14.9L331.5,14.9z M235.7,22c-2.2-2.3-4.3-4-6.4-5.2
		c0.4-0.2,0.7-0.4,1.1-0.7c1-0.7,2-1.5,2.9-2.4c1-0.9,1.9-1.8,2.6-2.8c0.9-1,1.6-2,2.2-3.1c0.7-1.2,1-2.3,1-3.3c0-1-0.5-1.8-1.2-2.3
		c-0.5-0.3-1.1-0.5-1.8-0.5L233.7,2c0,0,0,0,0,0c-0.1,0-0.6,0.1-4,0.5c0,0,0,0,0,0c-0.1,0-0.6,0.1-3.4,0.3c-0.1,0-0.3,0.1-0.5,0.1
		c0,0-0.1,0-0.1,0l-4.2,0.2l-1.3,0.1l-1,0c-1.6,0-2.7,0.1-3.5,0.4c-1.4,0.4-2.2,1.7-2.2,3.2c0,0.8,0.2,1.8,0.7,2.8
		c0.4,0.8,0.9,1.7,1.5,2.6c0.5,0.8,1.2,1.6,1.9,2.4c0,0,2.1,2,2.1,2c0,0,0,0,0.1,0.1c-0.4,0.2-0.9,0.5-1.3,0.8c0,0-0.1,0-0.1,0.1
		l-0.3,0.2c-0.4,0.3-0.7,0.5-1,0.6c-0.3,0.2-0.4,0.3-0.4,0.3l0,0c-18.5,12.3-24.6,38-21,57.1c1.5,8.2,6.3,8.8,12.8,8.8
		c0.4,0,0.7,0,1.1,0c0.4,0,0.9,0,1.3,0c3.2,0,6.4-0.3,7.7-2.4c0.9-1.4,0.8-3.3-0.2-5.7c-0.1-0.2-0.2-0.5-0.3-0.8
		c-1.2-3.1-4.1-10.2-0.5-12.1c1.3-0.7,6.4-2,10.1-2c2.4,0,3.1,0.6,3.3,0.8c1.5,1.9-1,6.6-2.7,9.8c-0.2,0.4-0.4,0.8-0.6,1.1l-0.2,0.3
		c-1.2,2.3-3,5.8-1.9,8.3c0.5,1.1,1.5,1.9,2.9,2.4c1.2,0.3,2.6,0.5,4.4,0.5c1.2,0,2.4-0.1,3.5-0.1c1.1-0.1,2.1-0.1,3-0.1
		c7.8,0,9.4-5.9,9.9-11c1-9.9,0.5-19.4-1.4-27.6C245.9,36.6,241.6,28.2,235.7,22L235.7,22z M228.6,46.2L228.6,46.2
		c-3.7,0-7.7,0.8-10.1,1.2c-0.9,0.2-1.8,0.3-2.1,0.3c-0.3,0-0.3-0.1-0.3-0.3c0-4.4,6.3-13.1,8.8-13.1c1.4,0,5.9,6.9,5.9,10.7
		C230.8,45.9,230.8,46.2,228.6,46.2L228.6,46.2z M300.7,56.3c-2.6,0-5.2,1.1-7.1,3c-2.7,2.8-5.7,4.3-8.6,4.3c-3.3,0-6.5-2-8.8-5.4
		c-3.1-4.7-3.7-10.9-1.5-16c2.3-5.3,6.8-8.9,11.6-9.3c4.6-0.4,6.1,1.3,7.8,3.3c0.8,0.9,1.6,1.8,2.7,2.5c1.3,0.8,2.7,1.2,4.2,1.2
		c2.4,0,4.4-1.1,5.5-2.2c5.6-5.6-0.5-13.7-2.5-16c-4.2-5-10.8-7.7-18.5-7.7c-5,0-10.2,1.2-14.5,3.4c-9.7,4.8-16.5,15.1-18.3,27.6
		c-2.1,14.6,3.9,28.9,15.1,35.7c4.3,2.6,9.1,4,14.1,4h0c8,0,16-3.5,21.8-9.5c4.5-4.6,6-9.1,4.7-13.4
		C307.2,58.4,304.4,56.3,300.7,56.3L300.7,56.3z M234.8,45.6c0-0.2,0-0.4,0-0.6c0-4.1-4.7-14.7-9.9-14.7c-0.6,0-1.3,0.2-1.9,0.4
		c1.8-1.8,3.6-3,5.3-3c4.6,0,9.1,10.2,9.1,13.9C237.4,43.7,236.6,45,234.8,45.6L234.8,45.6z M119.6,77.9c0.3,1.8,0.4,2.6-1.6,2.6
		c-3.7,0-6.5,0-10.2,0c-2.2,0-3.4,0.6-3.6-2.1c-0.2-4.1-0.4-9-0.5-13.4c-0.1-9.1,0.4-18.9,1.7-27.9c0.5-3.4,2.5-18.4,5.7-18.1
		c-3.8,15-5.2,30.6-4.8,46c0.1,3.8,0.1,8,0.3,11.7c0.1,1.2,0.7,1.2,2.2,1.2C112,77.9,116.6,77.9,119.6,77.9L119.6,77.9L119.6,77.9z
		 M40,78L40,78c-6.5,0-13.1,0.3-19.6,0.5c-3,0.1-7.2,0.3-9.7-1.8c-2.1-1.8-1.8-6-1.8-8.5c-0.3-8.7,0.5-17.4,1.4-26
		c0.9-7.7,1.7-15.9,4.1-23.3C8.9,18.6,5.9,59.3,6.2,71c0.1,3.6-0.5,8.3,3.7,9.5c4.7,1.4,10.3,0.5,15.1,0.4c3.9-0.1,7.7-0.3,11.5-0.3
		c2.2,0,5.3,0.1,6.7-0.3c1.2-0.4,0.8-2.3,0.8-2.3C42.9,78,41.1,78,40,78L40,78z M186.7,78c1.2,0,2.9,0,4.1-0.1c0,0,0.5,1.9-0.8,2.3
		c-1.4,0.4-4.5,0.3-6.7,0.3c-3.9,0-7.7,0.2-11.5,0.3c-4.8,0.1-10.4,1-15.1-0.4c-4.2-1.2-3.6-5.9-3.7-9.5
		c-0.3-11.7,2.7-52.4,8.1-52.2c-2.4,7.4-3.2,15.6-4.1,23.3c-1,8.6-1.7,17.4-1.4,26c0.1,2.5-0.3,6.7,1.8,8.5c2.5,2.1,6.7,1.9,9.7,1.8
		C173.6,78.3,180.2,78,186.7,78L186.7,78L186.7,78z M325.6,78.3c1.2,0,3.2,0,4.3-0.1c0,0,0.2,1.9-1,2.3c-1.4,0.4-4.5,0.3-6.7,0.3
		c-3.1,0.1-1.6,0-2.6,0c-4.3,0-4.5-4.1-4.6-7.6c-0.3-11.7,2.7-54.6,8.1-54.4c-2.4,7.4-3.2,15.6-4.1,23.3c-1,8.6-1.4,17.4-1.4,26
		c0,2.7,0,8,0.5,8.8C318.8,78.1,320.5,78.4,325.6,78.3L325.6,78.3L325.6,78.3z M353.3,77.8c1.2,0,3.2-0.1,4.4-0.1
		c0,0,0.3,1.9-0.9,2.3c-1.4,0.5-4.6,0.4-6.8,0.4c-3.1,0.1-1.6,0-2.6,0c-4.3,0.1-4.8-3.9-5-7.4c-0.8-11.5,0.9-53.8,6.4-53.6
		c-2.1,7.3-2.6,15.4-3.1,23c-0.6,8.5-1.2,17.1-0.8,25.6c0.1,2.6,0.3,7.9,0.9,8.7C346.4,77.7,348.1,77.9,353.3,77.8L353.3,77.8
		L353.3,77.8z M301.9,32.7c0.8,0.5,1.6,0.8,2.5,0.8c0,0,0.1,0,0.1,0c-0.2,0.6-0.4,1.1-0.9,1.6c-0.3,0.3-1.3,1-2.6,1
		c-0.7,0-1.4-0.2-2.1-0.6c-0.6-0.4-1.2-1-1.8-1.8c-1.7-2-4.1-4.7-9.7-4.7c-0.5,0-1,0-1.5,0.1c-2.1,0.2-4.2,0.8-6.1,1.8
		c2.7-2.5,6.1-4.1,9.5-4.4c0.5,0,1-0.1,1.4-0.1c5.2,0,7.4,2.5,9.1,4.4C300.6,31.5,301.2,32.2,301.9,32.7L301.9,32.7L301.9,32.7z
		 M476.5,51.9c-1-0.4-2.1-0.6-3.1-0.6c-1,0-1.9,0.2-2.8,0.5c1.5-1.9,3.7-3.1,6.2-3.1c0.9,0,1.9,0.2,2.8,0.5c1.9,0.7,3.5,1.2,4.7,1.4
		c-0.9,2.7-1.2,2.7-1.9,2.7C481.2,53.5,479.2,53,476.5,51.9L476.5,51.9L476.5,51.9z M491.8,30.8c-0.7,1.5-1.1,1.9-2.4,2.4
		c-0.4,0.2-0.9,0.2-1.3,0.2c-1.7,0-3.5-1.1-5.5-2.2c-2.2-1.2-4.4-2.5-7-2.9c-0.6-0.1-1.1-0.1-1.7-0.1c-1.5,0-2.8,0.3-4,0.7
		c1.8-2.1,4.3-3.3,7.4-3.3c0.5,0,1,0,1.6,0.1c2.4,0.3,4.6,1.6,6.7,2.8C487.7,29.8,489.8,30.9,491.8,30.8L491.8,30.8L491.8,30.8z
		 M379.8,39.9c-0.3-2.6-1.1-6.8-1.9-10.9c-0.7-3.4-1.3-7.2-1.5-8.2c-0.2-1,0.4-1.8,2.8-1.9c0.3,1.7,0.7,4.2,1.3,6.9
		c0.9,4.5,1.7,9.2,1.9,11.6c0.1,1.1-0.6,2.2-1.7,2.5C380.4,39.9,380.1,39.9,379.8,39.9L379.8,39.9L379.8,39.9z M138.2,31.1
		c0,2.1-1.2,4.9-3.4,6.6c0.5-1.1,0.9-2.2,0.9-3.3c0-5.3-4.1-8.7-10.4-8.7c-1,0-2.5,0-4.1,0.5c0.2-0.3,0.5-0.6,0.8-0.9
		c2.3-2.1,5.1-2.2,6.8-2.2C134.4,23.2,138.2,26.3,138.2,31.1L138.2,31.1L138.2,31.1z M404.2,33.6c0.4,1.2-2.6,3.1-2.8,1.8
		c-0.9-4-0.5-11.2,3.3-13.7C403.7,25,403.1,29.4,404.2,33.6L404.2,33.6L404.2,33.6z M390.5,77.8c0.6,0,1.2,0,1.7-0.1
		c-0.5,2.2-1.7,2.6-5.1,2.6h0c-0.8,0-1.5,0-2.3,0.1c-0.8,0-1.5,0.1-2.3,0.1c-3.7,0-4.4-0.9-4.8-1.7c-0.3-0.6-0.8-1.8-1.4-3.3
		c-3.7-8.6-11.4-26.3-15-32c-0.4-0.7-1-1.1-1.7-1.3c0-0.1,0-0.2,0-0.3c0-1.1,0.7-2.1,1.7-2.4c1-0.3,2.2,0.1,2.7,1
		c3.5,5.6,11.2,23.3,14.9,31.9l0.2,0.4c0.6,1.3,1,2.3,1.2,2.8c0.6,1.3,1.7,2.2,5.5,2.2c0.8,0,1.6,0,2.4-0.1
		C389,77.9,389.7,77.8,390.5,77.8L390.5,77.8L390.5,77.8z M424.3,78.6c1.5,0,3-0.3,4.5-0.4c1.5-0.1,1.3,0.1,1.3,1.5
		c0,1.2-4.3,1.2-5.3,1.3c-2.4,0.2-6.1,0.5-8.6-0.9c-3-1.7-2.5-12.7-2.2-17c0.5-8.1,1.9-16.1,3.2-24.1c0.4-2.4,1.5-5.6,0.4-7.9
		c-2-4.1-7-2-9.9-0.3c2.4-1.9,5.1-4,8.1-4.6c3-0.6,5.2,1.6,4.7,4.6c-0.5,5.5-1.8,11-2.6,16.4c-1,7.5-2.1,18.5-1.4,26
		C417,78.5,418.1,78.8,424.3,78.6L424.3,78.6L424.3,78.6z M489.8,77.8c0,0.1,0,0.2,0.1,0.4c0.2,1.1,0,1.6-0.1,1.7
		c0,0-0.4,0.4-2.5,0.5c-4.6,0.1-9,0.1-12.8,0.1l-10.1,0c-0.9,0-1.9,0-2.9,0.1c-0.9,0-1.9,0.1-2.8,0.1c-1.2,0-2.2-0.1-3-0.2
		c-1.4-0.3-1.9-1.6-2.1-6.1c0-0.5,0-0.9-0.1-1.4c-0.7-12.4-0.1-25.3,2-38.2c0.2-0.9,0.3-2,0.4-3.1c0.9-6.9,1.8-11,4.3-12.3
		c-0.8,2.4-1.3,5.4-1.7,8.9c-0.1,1.1-0.3,2.1-0.4,3c-2,12.9-2.7,25.8-2,38.3c0,0.4,0,0.8,0.1,1.4c0.2,4.5,0.6,6.4,2.7,6.9
		c0.9,0.2,1.9,0.3,3.1,0.3c0.9,0,1.9,0,2.9-0.1c1,0,2-0.1,2.9-0.1l10.1,0C481.4,77.8,485.6,77.8,489.8,77.8L489.8,77.8L489.8,77.8z
		 M214.7,77.8C214.7,77.9,214.6,77.8,214.7,77.8c1,2.4,0.2,2.4-2.1,2.5c-2.8,0.2-5.9,0.3-8.7-0.2c-5-0.9-4.8-7.9-5-11.9
		c-0.8-13.3,2.9-27.7,11.2-38.2c-6.5,10.2-9.3,22.7-8.7,34.7c0.2,3.5,0.1,10.1,3.7,12.1C207.8,78.3,211.7,77.8,214.7,77.8
		L214.7,77.8L214.7,77.8z M442.4,30.6C443.2,31.3,441.7,29.9,442.4,30.6c1.6,1.6,2,1.6,0.6,3.6c-1.2,1.7-1.5,1.1-2.8-0.2
		c-1.9-1.8-4.1-4.4-7-4.4C435.3,24.8,439.9,28,442.4,30.6L442.4,30.6L442.4,30.6z M285.2,78.2c4.7,0,9.4-1.3,13.5-3.8
		c-4.8,4.1-10.8,6.4-16.9,6.4h0c-4.3,0-8.4-1.1-12-3.4c-11.3-6.9-14.8-20.9-13.2-31.7c1-6.9,3.7-13,7.6-17.6
		c-2.5,4.1-4.2,8.9-5,14.1c-1.6,11.1,2,25.4,13.6,32.5C276.6,77,280.8,78.2,285.2,78.2L285.2,78.2L285.2,78.2z M240.2,78.4
		c1.3-0.1,4.3-0.7,4.8-0.7c-1.8,4.1-17.6,5.7-15.1,0c0.9-2.1,3.2-7.2,3.6-8.3c1.8-4.6,3.5-9.5-1.8-11.4c-4.3-1.6-10.2-0.2-14.4,1.3
		c2.5-3.8,9.7-4.4,13.8-4.4c7.2,0,7.7,5.2,5.9,11.1c-1.1,3.6-2.7,7.4-4,10.3C231.4,79.5,237.2,78.6,240.2,78.4L240.2,78.4
		L240.2,78.4z M55.8,44.4L55.8,44.4c1.9,0.3,4.6-1.8,6-2.8c2.1-1.5,4.4-2.8,7-2.5c4.1,0.5,8.1,4.6,7.1,8.9c2.4-2.5,0.9-6.5-0.2-8.1
		c-1.3-1.8-3.3-3.6-7-3.5c-3.9,0.1-6.5,2.5-9.8,4.1c-3.7,1.8-3.9-2-2.9-4.8C53.7,37.9,51.2,43.7,55.8,44.4
		C55.9,44.5,55.1,44.3,55.8,44.4L55.8,44.4z M84.2,77.9L84.2,77.9c0-0.2,0-0.3,0-0.5c-4.3,0.3-8.5,0.4-12.8,0.5
		c-3.8,0.1-8.1,0.2-11.7-1.6C52.4,72.5,53.6,62,57,55.9c-6.2,5.9-7.8,20.4,2.1,23.6c4.2,1.3,8.7,1,13,0.9c2.5-0.1,5-0.1,7.6-0.3
		c1.3-0.1,2.6-0.1,3.8-0.2C84.6,79.7,84.1,78.8,84.2,77.9L84.2,77.9z M233.3,8.2C233.8,7.8,232.5,9,233.3,8.2
		c0.5-0.4,0.9-0.9,1.4-1.4c-2,3-8.1,10.2-12.1,7.5c-2.3-1.6-4.9-4.6-5.8-7.3c-0.5-1.1,0.7-1,1.4-1.1c1.4-0.2,1.9,0.8,2.6,1.9
		c2,3.4,4,5.2,6.5,4.2C229.5,11.3,231.6,9.8,233.3,8.2L233.3,8.2L233.3,8.2z M77,63.6L77,63.6c0,2.3,0.2,4.8-0.7,7
		c3.7-2.2,3.4-9.1,2.8-12.9c-1.2-8.5-12.3-4.4-15,0.8c2.5-2.2,6.5-3.7,9.7-2.3C76.8,57.7,77.1,60.8,77,63.6L77,63.6z"/>
	<g class="st1">
		<path class="st2" d="M16.4-700.3h2.9c1.6,0,2.7,0.1,3.4,0.4c0.7,0.3,1.2,0.8,1.6,1.4c0.4,0.7,0.6,1.4,0.6,2.3
			c0,0.9-0.2,1.7-0.7,2.4c-0.5,0.6-1.1,1.1-2,1.4l3.4,6.4h-3l-3.2-6.1h-0.3v6.1h-2.7V-700.3L16.4-700.3z M19.2-694.7H20
			c0.9,0,1.5-0.1,1.8-0.3c0.3-0.2,0.5-0.6,0.5-1.1c0-0.3-0.1-0.6-0.2-0.8c-0.2-0.2-0.4-0.4-0.7-0.5c-0.3-0.1-0.8-0.2-1.5-0.2h-0.8
			V-694.7L19.2-694.7z"/>
		<polygon class="st2" points="27.8,-700.3 35.6,-700.3 35.6,-697.6 30.5,-697.6 30.5,-695 35.6,-695 35.6,-692.4 30.5,-692.4 
			30.5,-688.6 35.6,-688.6 35.6,-686 27.8,-686 27.8,-700.3 		"/>
		<path class="st2" d="M36.8-700.3h7.9v2.7h-2.6v11.6h-2.8v-11.6h-2.6V-700.3L36.8-700.3z M39.8-684.8h1.8v0.3
			c0,0.8-0.1,1.4-0.2,1.7c-0.1,0.3-0.4,0.6-0.8,1l-0.5-0.5c0.3-0.2,0.5-0.5,0.6-0.9h-0.9V-684.8L39.8-684.8z"/>
		<polygon class="st2" points="46.5,-700.3 54.3,-700.3 54.3,-697.6 49.2,-697.6 49.2,-695 54.3,-695 54.3,-692.4 49.2,-692.4 
			49.2,-688.6 54.3,-688.6 54.3,-686 46.5,-686 46.5,-700.3 		"/>
		<path class="st2" d="M61.2-700.3H64l5.5,14.3h-2.8l-1.1-2.9h-5.9l-1.1,2.9h-2.8L61.2-700.3L61.2-700.3z M62.6-696.5l-1.9,4.9h3.9
			L62.6-696.5L62.6-696.5z"/>
		<path class="st2" d="M77.2-700.3h3.2c2.1,0,3.6,0.3,4.6,0.8c1,0.5,1.8,1.4,2.5,2.5c0.7,1.2,1,2.5,1,4.1c0,1.1-0.2,2.1-0.5,3
			c-0.4,0.9-0.9,1.7-1.5,2.3c-0.6,0.6-1.3,1-2.1,1.3c-0.7,0.2-2.1,0.3-3.9,0.3h-3.3V-700.3L77.2-700.3z M79.9-697.6v9h1.3
			c1.2,0,2.1-0.1,2.7-0.4c0.6-0.3,1-0.8,1.4-1.4c0.4-0.7,0.5-1.5,0.5-2.5c0-1.5-0.4-2.7-1.3-3.5c-0.8-0.8-2-1.1-3.7-1.1H79.9
			L79.9-697.6z"/>
		<polygon class="st2" points="91.1,-700.3 98.9,-700.3 98.9,-697.6 93.8,-697.6 93.8,-695 98.9,-695 98.9,-692.4 93.8,-692.4 
			93.8,-688.6 98.9,-688.6 98.9,-686 91.1,-686 91.1,-700.3 		"/>
		<path class="st2" d="M107.2-700.3h2.9c1.6,0,2.7,0.1,3.4,0.4c0.7,0.3,1.2,0.8,1.6,1.4c0.4,0.7,0.6,1.4,0.6,2.3
			c0,0.9-0.2,1.7-0.7,2.4c-0.5,0.6-1.1,1.1-2,1.4l3.4,6.4h-3l-3.2-6.1h-0.3v6.1h-2.7V-700.3L107.2-700.3z M109.9-694.7h0.9
			c0.9,0,1.5-0.1,1.8-0.3c0.3-0.2,0.5-0.6,0.5-1.1c0-0.3-0.1-0.6-0.2-0.8c-0.2-0.2-0.4-0.4-0.7-0.5c-0.3-0.1-0.8-0.2-1.5-0.2h-0.8
			V-694.7L109.9-694.7z"/>
		<polygon class="st2" points="118.6,-700.3 126.4,-700.3 126.4,-697.6 121.3,-697.6 121.3,-695 126.4,-695 126.4,-692.4 
			121.3,-692.4 121.3,-688.6 126.4,-688.6 126.4,-686 118.6,-686 118.6,-700.3 		"/>
		<path class="st2" d="M136.4-698.3l-2,1.8c-0.7-1-1.4-1.5-2.2-1.5c-0.4,0-0.7,0.1-0.9,0.3c-0.2,0.2-0.3,0.4-0.3,0.6
			s0.1,0.5,0.2,0.7c0.2,0.3,0.9,0.9,2,1.8c1,0.9,1.7,1.4,1.9,1.6c0.6,0.6,0.9,1.1,1.2,1.6c0.2,0.5,0.3,1.1,0.3,1.7
			c0,1.2-0.4,2.1-1.2,2.9c-0.8,0.8-1.9,1.1-3.2,1.1c-1,0-1.9-0.2-2.7-0.7c-0.8-0.5-1.4-1.3-1.9-2.4l2.3-1.4c0.7,1.3,1.5,1.9,2.4,1.9
			c0.5,0,0.9-0.1,1.2-0.4c0.3-0.3,0.5-0.6,0.5-0.9c0-0.3-0.1-0.6-0.4-1c-0.2-0.3-0.8-0.8-1.6-1.5c-1.6-1.3-2.6-2.2-3-2.9
			c-0.5-0.7-0.7-1.4-0.7-2.1c0-1,0.4-1.8,1.1-2.5c0.8-0.7,1.7-1.1,2.8-1.1c0.7,0,1.4,0.2,2,0.5C135-699.8,135.7-699.2,136.4-698.3
			L136.4-698.3z"/>
		<polygon class="st2" points="137.9,-700.3 145.8,-700.3 145.8,-697.6 143.2,-697.6 143.2,-686 140.4,-686 140.4,-697.6 
			137.9,-697.6 137.9,-700.3 		"/>
		<path class="st2" d="M175.3-700.3h2.9c1.6,0,2.7,0.1,3.4,0.4c0.7,0.3,1.2,0.8,1.6,1.4c0.4,0.7,0.6,1.4,0.6,2.3
			c0,0.9-0.2,1.7-0.7,2.4c-0.5,0.6-1.1,1.1-2,1.4l3.4,6.4h-3l-3.2-6.1H178v6.1h-2.7V-700.3L175.3-700.3z M178-694.7h0.9
			c0.9,0,1.5-0.1,1.8-0.3c0.3-0.2,0.5-0.6,0.5-1.1c0-0.3-0.1-0.6-0.2-0.8c-0.2-0.2-0.4-0.4-0.7-0.5c-0.3-0.1-0.8-0.2-1.5-0.2H178
			V-694.7L178-694.7z"/>
		<path class="st2" d="M191-700.3h2.7l5.5,14.3h-2.8l-1.1-2.9h-5.9l-1.1,2.9h-2.8L191-700.3L191-700.3z M192.4-696.5l-1.9,4.9h3.9
			L192.4-696.5L192.4-696.5z"/>
		<polygon class="st2" points="201.4,-700.3 204,-700.3 210.1,-690.9 210.1,-700.3 212.8,-700.3 212.8,-686 210.2,-686 
			204.1,-695.4 204.1,-686 201.4,-686 201.4,-700.3 		"/>
		<polygon class="st2" points="214.7,-700.3 222.6,-700.3 222.6,-697.6 220,-697.6 220,-686 217.2,-686 217.2,-697.6 214.7,-697.6 
			214.7,-700.3 		"/>
		<polygon class="st2" points="224.5,-700.3 232.3,-700.3 232.3,-697.6 227.2,-697.6 227.2,-695 232.3,-695 232.3,-692.4 
			227.2,-692.4 227.2,-688.6 232.3,-688.6 232.3,-686 224.5,-686 224.5,-700.3 		"/>
		<path class="st2" d="M253.5-697.8l-1.9,1.8c-1.3-1.4-2.8-2.1-4.4-2.1c-1.4,0-2.5,0.5-3.5,1.4c-0.9,0.9-1.4,2.1-1.4,3.4
			c0,1,0.2,1.8,0.6,2.5c0.4,0.7,1,1.3,1.8,1.7c0.8,0.4,1.6,0.6,2.5,0.6c0.8,0,1.5-0.1,2.2-0.4c0.7-0.3,1.4-0.8,2.2-1.6l1.8,1.9
			c-1.1,1-2.1,1.7-3,2.1c-0.9,0.4-2,0.6-3.2,0.6c-2.2,0-4-0.7-5.5-2.1c-1.4-1.4-2.1-3.2-2.1-5.4c0-1.4,0.3-2.7,1-3.8
			c0.6-1.1,1.6-2,2.8-2.7c1.2-0.7,2.5-1,3.9-1c1.2,0,2.3,0.2,3.4,0.7C251.8-699.4,252.7-698.7,253.5-697.8L253.5-697.8z"/>
		<path class="st2" d="M255.8-700.3h2.7v9.2c0,0.8,0.1,1.4,0.2,1.7c0.1,0.3,0.4,0.6,0.7,0.8c0.3,0.2,0.7,0.3,1.2,0.3
			c0.5,0,0.9-0.1,1.2-0.3c0.3-0.2,0.6-0.5,0.7-0.8c0.1-0.3,0.2-1,0.2-1.9v-8.9h2.7v8.5c0,1.4-0.1,2.4-0.2,3
			c-0.2,0.6-0.5,1.1-0.9,1.6c-0.5,0.5-1,0.9-1.6,1.2c-0.6,0.2-1.3,0.4-2.1,0.4c-1,0-1.9-0.2-2.7-0.7c-0.8-0.5-1.3-1.1-1.6-1.8
			c-0.3-0.7-0.5-1.9-0.5-3.6V-700.3L255.8-700.3z"/>
		<path class="st2" d="M274.2-686v-14.3h2.3c1.3,0,2.3,0.1,2.9,0.3c0.9,0.2,1.5,0.7,2,1.3c0.5,0.6,0.8,1.3,0.8,2.2
			c0,0.5-0.1,1-0.3,1.5c-0.2,0.4-0.6,0.9-1.1,1.3c0.9,0.4,1.5,0.9,1.9,1.5c0.4,0.6,0.6,1.3,0.6,2.2c0,0.8-0.2,1.5-0.6,2.2
			c-0.4,0.7-1,1.2-1.6,1.5c-0.7,0.3-1.6,0.5-2.7,0.5H274.2L274.2-686z M276.9-697.7v3h0.6c0.7,0,1.2-0.1,1.5-0.4
			c0.3-0.3,0.5-0.7,0.5-1.1c0-0.4-0.2-0.8-0.5-1.1c-0.3-0.3-0.8-0.4-1.4-0.4H276.9L276.9-697.7z M276.9-692.2v3.7h0.7
			c1.1,0,1.9-0.1,2.3-0.4c0.4-0.3,0.6-0.7,0.6-1.2c0-0.6-0.2-1.1-0.7-1.5c-0.5-0.4-1.2-0.5-2.3-0.5H276.9L276.9-692.2z"/>
		<path class="st2" d="M285.6-700.3h2.7v9.2c0,0.8,0.1,1.4,0.2,1.7c0.1,0.3,0.4,0.6,0.7,0.8c0.3,0.2,0.7,0.3,1.2,0.3
			c0.5,0,0.9-0.1,1.2-0.3c0.3-0.2,0.6-0.5,0.7-0.8c0.1-0.3,0.2-1,0.2-1.9v-8.9h2.7v8.5c0,1.4-0.1,2.4-0.2,3
			c-0.2,0.6-0.5,1.1-0.9,1.6c-0.5,0.5-1,0.9-1.6,1.2c-0.6,0.2-1.3,0.4-2.1,0.4c-1,0-1.9-0.2-2.7-0.7c-0.8-0.5-1.3-1.1-1.6-1.8
			c-0.3-0.7-0.5-1.9-0.5-3.6V-700.3L285.6-700.3z"/>
		<path class="st2" d="M311.6-697.8l-1.9,1.8c-1.3-1.4-2.8-2.1-4.4-2.1c-1.4,0-2.5,0.5-3.5,1.4c-0.9,0.9-1.4,2.1-1.4,3.4
			c0,1,0.2,1.8,0.6,2.5c0.4,0.7,1,1.3,1.8,1.7c0.8,0.4,1.6,0.6,2.5,0.6c0.8,0,1.5-0.1,2.2-0.4c0.7-0.3,1.4-0.8,2.2-1.6l1.8,1.9
			c-1.1,1-2.1,1.7-3,2.1c-0.9,0.4-2,0.6-3.2,0.6c-2.2,0-4-0.7-5.5-2.1c-1.4-1.4-2.1-3.2-2.1-5.4c0-1.4,0.3-2.7,1-3.8
			c0.6-1.1,1.6-2,2.8-2.7c1.2-0.7,2.5-1,3.9-1c1.2,0,2.3,0.2,3.4,0.7C309.9-699.4,310.8-698.7,311.6-697.8L311.6-697.8z"/>
		<path class="st2" d="M318.4-700.3h2.7l5.5,14.3h-2.8l-1.1-2.9h-5.9l-1.1,2.9h-2.8L318.4-700.3L318.4-700.3z M319.8-696.5l-1.9,4.9
			h3.9L319.8-696.5L319.8-696.5z M315.8-704.1h2.1c0.2,0.3,0.4,0.5,0.7,0.6c0.3,0.1,0.7,0.2,1.1,0.2c0.4,0,0.8-0.1,1.2-0.2
			c0.2-0.1,0.4-0.3,0.6-0.6h2.1c-0.1,0.8-0.5,1.5-1.2,2c-0.7,0.5-1.6,0.7-2.8,0.7c-0.8,0-1.5-0.1-2-0.3c-0.5-0.2-1-0.5-1.3-1
			C316.1-703.1,315.9-703.6,315.8-704.1L315.8-704.1z"/>
		<polygon class="st2" points="327.3,-700.3 335.2,-700.3 335.2,-697.6 332.6,-697.6 332.6,-686 329.9,-686 329.9,-697.6 
			327.3,-697.6 327.3,-700.3 		"/>
		<path class="st2" d="M341.5-700.3h2.7l5.5,14.3h-2.8l-1.1-2.9h-5.9l-1.1,2.9h-2.8L341.5-700.3L341.5-700.3z M342.8-696.5l-1.9,4.9
			h3.9L342.8-696.5L342.8-696.5z M338.9-704.1h2.1c0.2,0.3,0.4,0.5,0.7,0.6c0.3,0.1,0.7,0.2,1.1,0.2c0.4,0,0.8-0.1,1.2-0.2
			c0.2-0.1,0.4-0.3,0.6-0.6h2.1c-0.1,0.8-0.5,1.5-1.2,2c-0.7,0.5-1.6,0.7-2.8,0.7c-0.8,0-1.5-0.1-2-0.3c-0.5-0.2-1-0.5-1.3-1
			C339.2-703.1,339-703.6,338.9-704.1L338.9-704.1z"/>
		<path class="st2" d="M352-700.3h2.9c1.6,0,2.7,0.1,3.4,0.4c0.7,0.3,1.2,0.8,1.6,1.4c0.4,0.7,0.6,1.4,0.6,2.3
			c0,0.9-0.2,1.7-0.7,2.4c-0.5,0.6-1.1,1.1-2,1.4l3.4,6.4h-3L355-692h-0.3v6.1H352V-700.3L352-700.3z M354.7-694.7h0.9
			c0.9,0,1.5-0.1,1.8-0.3c0.3-0.2,0.5-0.6,0.5-1.1c0-0.3-0.1-0.6-0.2-0.8c-0.2-0.2-0.4-0.4-0.7-0.5c-0.3-0.1-0.8-0.2-1.5-0.2h-0.8
			V-694.7L354.7-694.7z"/>
		<polygon class="st2" points="363.2,-700.3 365.9,-700.3 365.9,-686 363.2,-686 363.2,-700.3 		"/>
		<polygon class="st2" points="383.5,-700.3 391.4,-700.3 391.4,-697.6 388.8,-697.6 388.8,-686 386,-686 386,-697.6 383.5,-697.6 
			383.5,-700.3 		"/>
		<path class="st2" d="M393.4-700.3h2.9c1.6,0,2.7,0.1,3.4,0.4c0.7,0.3,1.2,0.8,1.6,1.4c0.4,0.7,0.6,1.4,0.6,2.3
			c0,0.9-0.2,1.7-0.7,2.4c-0.5,0.6-1.1,1.1-2,1.4l3.4,6.4h-3l-3.2-6.1h-0.3v6.1h-2.7V-700.3L393.4-700.3z M396.1-694.7h0.9
			c0.9,0,1.5-0.1,1.8-0.3c0.3-0.2,0.5-0.6,0.5-1.1c0-0.3-0.1-0.6-0.2-0.8c-0.2-0.2-0.4-0.4-0.7-0.5c-0.3-0.1-0.8-0.2-1.5-0.2h-0.8
			V-694.7L396.1-694.7z"/>
		<path class="st2" d="M409.1-700.3h2.7l5.5,14.3h-2.8l-1.1-2.9h-5.9l-1.1,2.9h-2.8L409.1-700.3L409.1-700.3z M410.5-696.5l-1.9,4.9
			h3.9L410.5-696.5L410.5-696.5z"/>
		<path class="st2" d="M419.5-700.3h3.2c2.1,0,3.6,0.3,4.6,0.8c1,0.5,1.8,1.4,2.5,2.5c0.7,1.2,1,2.5,1,4.1c0,1.1-0.2,2.1-0.5,3
			s-0.9,1.7-1.5,2.3c-0.6,0.6-1.3,1-2.1,1.3c-0.7,0.2-2,0.3-3.9,0.3h-3.3V-700.3L419.5-700.3z M422.2-697.6v9h1.3
			c1.2,0,2.1-0.1,2.7-0.4c0.6-0.3,1-0.8,1.4-1.4c0.4-0.7,0.5-1.5,0.5-2.5c0-1.5-0.4-2.7-1.3-3.5c-0.8-0.8-2-1.1-3.7-1.1H422.2
			L422.2-697.6z"/>
		<polygon class="st2" points="433.2,-700.3 435.9,-700.3 435.9,-686 433.2,-686 433.2,-700.3 		"/>
		<path class="st2" d="M437.6-700.3h7.9v2.7h-2.6v11.6h-2.8v-11.6h-2.6V-700.3L437.6-700.3z M440.7-684.8h1.8v0.3
			c0,0.8-0.1,1.4-0.2,1.7c-0.1,0.3-0.4,0.6-0.8,1l-0.5-0.5c0.3-0.2,0.5-0.5,0.6-0.9h-0.9V-684.8L440.7-684.8z"/>
		<polygon class="st2" points="447.2,-700.3 449.9,-700.3 449.9,-686 447.2,-686 447.2,-700.3 		"/>
		<path class="st2" d="M459.7-700.6c2,0,3.8,0.7,5.2,2.2c1.5,1.5,2.2,3.2,2.2,5.4c0,2.1-0.7,3.9-2.2,5.3c-1.4,1.4-3.2,2.2-5.2,2.2
			c-2.1,0-3.9-0.7-5.3-2.2c-1.4-1.5-2.1-3.2-2.1-5.3c0-1.4,0.3-2.6,1-3.8c0.7-1.1,1.6-2.1,2.7-2.7
			C457.1-700.3,458.3-700.6,459.7-700.6L459.7-700.6z M459.6-698c-1.3,0-2.4,0.5-3.3,1.4c-0.9,0.9-1.3,2.1-1.3,3.5
			c0,1.6,0.6,2.8,1.7,3.7c0.9,0.7,1.9,1.1,3,1.1c1.3,0,2.4-0.5,3.3-1.4c0.9-0.9,1.4-2.1,1.4-3.4c0-1.4-0.5-2.5-1.4-3.5
			C462-697.5,460.9-698,459.6-698L459.6-698z"/>
		<polygon class="st2" points="469.7,-700.3 472.2,-700.3 478.4,-690.9 478.4,-700.3 481.1,-700.3 481.1,-686 478.5,-686 
			472.4,-695.4 472.4,-686 469.7,-686 469.7,-700.3 		"/>
		<path class="st2" d="M488.7-700.3h2.7L497-686h-2.8l-1.1-2.9h-5.9L486-686h-2.8L488.7-700.3L488.7-700.3z M490.1-696.5l-1.9,4.9
			h3.9L490.1-696.5L490.1-696.5z"/>
		<polygon class="st2" points="499.1,-700.3 501.8,-700.3 501.8,-688.6 505.8,-688.6 505.8,-686 499.1,-686 499.1,-700.3 		"/>
		<path class="st2" d="M512.2-700.3h2.7l5.5,14.3h-2.8l-1.1-2.9h-5.9l-1.1,2.9h-2.8L512.2-700.3L512.2-700.3z M513.6-696.5l-1.9,4.9
			h3.9L513.6-696.5L513.6-696.5z M509.7-704.1h2.1c0.2,0.3,0.4,0.5,0.7,0.6c0.3,0.1,0.7,0.2,1.1,0.2c0.4,0,0.8-0.1,1.2-0.2
			c0.2-0.1,0.4-0.3,0.6-0.6h2.1c-0.1,0.8-0.5,1.5-1.2,2c-0.7,0.5-1.6,0.7-2.8,0.7c-0.8,0-1.5-0.1-2-0.3c-0.5-0.2-1-0.5-1.3-1
			C509.9-703.1,509.7-703.6,509.7-704.1L509.7-704.1z"/>
		<path class="st2" d="M152-700.3h2.7l5.5,14.3h-2.8l-1.1-2.9h-5.9l-1.1,2.9h-2.8L152-700.3L152-700.3z M153.4-696.5l-1.9,4.9h3.9
			L153.4-696.5L153.4-696.5z"/>
		<path class="st2" d="M162.3-700.3h2.7v9.2c0,0.8,0.1,1.4,0.2,1.7c0.1,0.3,0.4,0.6,0.7,0.8c0.3,0.2,0.7,0.3,1.2,0.3
			c0.5,0,0.9-0.1,1.2-0.3c0.3-0.2,0.6-0.5,0.7-0.8c0.1-0.3,0.2-1,0.2-1.9v-8.9h2.7v8.5c0,1.4-0.1,2.4-0.2,3
			c-0.2,0.6-0.5,1.1-0.9,1.6c-0.5,0.5-1,0.9-1.6,1.2c-0.6,0.2-1.3,0.4-2.1,0.4c-1,0-1.9-0.2-2.7-0.7c-0.8-0.5-1.3-1.1-1.6-1.8
			c-0.3-0.7-0.5-1.9-0.5-3.6V-700.3L162.3-700.3z"/>
		<polygon class="st2" points="369,-700.3 376.8,-700.3 376.8,-697.6 371.7,-697.6 371.7,-695 376.8,-695 376.8,-692.4 
			371.7,-692.4 371.7,-688.6 376.8,-688.6 376.8,-686 369,-686 369,-700.3 		"/>
	</g>
</g>
<g id="Layer_2" class="st1">
	<path class="st3" d="M390.7-932.6c1.1,14-2.1,35.5-13.6,51.7c-3.4,4.7-8.4,7.8-12,7.3c-1.9-0.3-3.3-1.7-4.1-4.1
		c-11.2-34.2-30.4-50.9-41.9-60.8c-6.7-5.8-9.7-8.7-9.7-11.2c0-0.6,0.2-1.1,0.5-1.7c4.3-7.5,23.5-11.3,43.6-8.7
		c11.5,1.5,24.2,5.4,31.1,12.1c-4.1-8-9.6-15.5-16.2-22.3c-1.3-0.1-2.6-0.1-4-0.2c-18.8-1-47.2-2.6-74.8,5h0c-1.3,0.3-1.8,0-2.3-0.7
		c-3.7-4.9-1.1-24.7,6.2-36.6c0.8-1.4,1.9-2.8,3.1-4.1c-6.4-1.2-12.9-2-19.7-2.4c0,0,0,0,0,0c2,3.2,2.8,9.9,2.1,18.3
		c-1.5,17.4-7.7,32.2-12.2,33.4c-5.5,1.4-10-2.8-18.2-10.9c-9-9-21.2-20.9-42.1-28.9c-4.6,2-9,4.3-13.2,6.8c5.2,1.1,10.4,3,15.1,5.3
		c15.9,7.9,26.9,20.7,25.6,29.8c-0.7,5-6.2,6.9-18.5,10.8c-14.4,4.6-36.2,11.5-64,30.6c-1.2,0.8-2.5,1.1-3.5,0.6
		c0.5,5.9,1.7,11.6,3.5,17.2c0.4-0.8,0.9-1.5,1.5-2.1c27.9-30.9,76.1-41.9,87.9-37c1.8,0.7,1.7,1.5,1.7,1.7
		c-0.1,1.5-1.2,4.7-2.7,8.7c-4.4,12.2-12.6,34.8-15.4,73c-0.4,4.9-3.1,8.2-8.2,9.5c-5.5,1.5-13,0.7-21.2-2.2
		c19.2,11.8,42.9,19.5,69,21.1c67.7,4.2,125.5-33.9,129-85.1C393.6-917,392.8-925,390.7-932.6L390.7-932.6z M352.6-869.1
		L352.6-869.1c-0.2,4.6-6,7.8-8.4,9c-36.2,17.7-93.8,30.6-106.2,23.8c-1.6-0.9-1.8-1.7-1.9-2.3l0-0.1l0-0.1
		c-3.2-17.1,4.9-81,24.8-103.2c4.6-5.2,9.5-7.6,14.6-7.2c23.8,1.8,44.2,22.9,54.2,35.3C344.3-895.7,353-876.5,352.6-869.1
		L352.6-869.1z"/>
	<path class="st4" d="M275.6-951.3c-32-2.5-46,90.2-41.8,113c1.8,15.4,72.7-0.9,111.3-19.8c4.4-2.2,9.4-5.9,9.6-10.9
		C355.6-885.7,317.8-948,275.6-951.3L275.6-951.3z"/>
	<path class="st4" d="M151.3-900.1c-7.3,8.1-0.5,22,1.6,24.9c24.7,35.6,72,46.3,73.8,23.1c3.8-52,17.7-75,18.1-81.7
		C245.4-946,184.3-936.7,151.3-900.1L151.3-900.1z"/>
	<path class="st4" d="M166.6-987.1c-10.5,10.7-23.9,43.7-22.8,69.6c0.2,5.5,4.7,7.9,8.9,5c50.8-35.1,81.5-28.6,83.5-42.9
		C239.2-977,186.9-1007.6,166.6-987.1L166.6-987.1z"/>
	<path class="st4" d="M275.9-1013.2c-34-15-95,9.6-75.8,15.7c43.5,13.9,51.8,45.8,67.2,41.9C278.3-958.4,287.6-1008,275.9-1013.2
		L275.9-1013.2z"/>
	<path class="st4" d="M303.4-1012.1c-16.6-2.9-27.8,52.5-13.2,48.5c35.2-9.7,72.6-4.2,87.2-4.4
		C398.2-968.2,356.8-1002.7,303.4-1012.1L303.4-1012.1z"/>
	<path class="st4" d="M391.6-940.9c-6.6-25-73.5-29.2-83.5-11.7c-6.9,11.9,32.5,19.4,50.9,75.5c3.2,9.6,14,5.7,19.9-2.6
		C393.2-899.7,395.1-927.6,391.6-940.9L391.6-940.9z"/>
	<path class="st5" d="M387.7-914.6L387.7-914.6c-0.4,9-2.8,17.4-7.1,25.2c-2.3,4.1-7,10.2-13,8.4c-5.2-1.5-8.2-7.8-9.8-12
		c-3.2-8.5-5.6-23.6-14.9-28.4c8.7,4.4,13.6,8.9,18.3,17c1.8,3.1,3.6,7.1,7.7,7c4.4-0.2,6.8-5.4,7.7-9.1c2.3-9.5,0.1-21.8-4.3-30.7
		c-5.4-10.6-16.7-14.5-27.8-16.4c-6.3-1.1-20.2-2.1-26.3,1.3c0,0,15.4-11,45.9-2.9c8.6,2.3,17.1,6.2,20.9,14.3
		C388.9-932.7,388.3-926.5,387.7-914.6L387.7-914.6z M371.4-975.2L371.4-975.2c-1.3,4.6-10.8,2.9-14,2.7c-4.9-0.2-9.9-1.6-14.8-2.2
		c-4.8-0.6-9.4-0.7-14.2-0.7c-7.1-0.1-14.2-0.3-20.9,2c-2.4,0.8-4.9,1.5-7.3,2.5c-1.9,0.8-4.1,2.4-6.1,2.7c-1.6,0.2-4-0.4-5.1-1.7
		c-1.1-1.2-1.2-3.7-1.4-5.2c-0.6-5.3,1-11.5,4.2-15.9c-1.2,3.7-2.6,8.1,2.6,9.4c2.9,0.7,6,0,8.6-1.1c5.4-2.3,9.9-4.5,16-4.5
		c5.9,0.1,10.9,0.8,16.4,2.9c3.3,1.3,6.6,2.6,10,3.4c1.9,0.4,6.2,1.5,7.6-0.5c0.9-1.3-0.2-3.4-0.8-4.5c-4.3-7.2-14.3-9.8-21.9-12.4
		c-4.5-1.6-17.9-6.5-18.8-7.8l16.3,4.9c7.9,2.3,12.3,3.5,17,5.6c4.5,2,8.3,5.6,11.6,8.1c3.4,2.5,7.6,3.9,11,6.5
		C368.8-979.6,372-977.3,371.4-975.2L371.4-975.2z M277-989.8L277-989.8c-0.1,5.6-1.2,11.3-3.7,16.3c-1.6,3.3-4.1,7.3-8.1,8.1
		c-5.5,1.2-10.3-5-13.3-8.5c-5.6-6.6-12.8-12.4-20.5-16.6c-4-2.1-7.7-4.1-12.1-5.5c-4.2-1.3-9.2-1.8-13.1-3.8
		c-4.5-2.3,1.3-5.3,3.4-6.5c0,0,1.6-0.9,2.2-0.9c-2.2,1.8-3.8,5,0.2,5.8c4.2,0.8,8.5,0.4,12.8,0.2c5.9-0.2,10.4,0.1,15.7,3.1
		c3.3,1.9,5.8,5,8.5,7.5c2.3,2.2,3.6,5.1,5.7,7.4c3.8,4.2,11,6.4,14.4,0.5c2.4-4.3,3.4-9.2,3.1-14.1c-0.3-4-1.8-8.1-4.7-10.9
		c-3.5-3.5-7.9-3.5-12.6-4.4c2.6-1.1,6.5-1,9.3-0.6C276-1011,277.1-999.3,277-989.8L277-989.8z M227-951.4L227-951.4
		c-8.4,4.1-17.9,6.2-26.6,9.6c-15.7,6.3-20.1,9.2-30.1,14c-4.2,2-8.2,4.5-12.3,6.5c-5.2,2.5-9.3,2.5-9.7-3.6
		c-0.4-5.8-0.3-9.7,1.9-15.1c-1.1,6.9,2,12.4,10,9.3c6.6-2.6,12.9-8.6,19.4-12.3c9.8-5.6,21.5-8.3,31.9-12.3
		c6.9-2.6,12.5-7,7.5-14.3c-4.3-6.2-10.6-11-18-13.4c-13.5-4.5-20.5-3.1-24.9-2.2c8.1-5,25.2-2.3,34.2,2.4c7.4,3.8,11.5,7.3,18,15.4
		C232.3-962.2,234-954.9,227-951.4L227-951.4z M228.5-905.8L228.5-905.8c-3.9,10.5-5.9,21.9-6.7,33.2c-0.7,9.3,0.4,25.2-13.1,25.8
		c-11.6,0.5-27.3-8-36.4-14.3c-8.2-5.6-22.5-20.2-19.1-31c1.7,16.1,34.1,39.9,51.1,35.4c13-3.5,10.1-18.3,9.7-29
		c-0.2-6,0.4-10.3,2-15.9c1.4-4.7,6-11.1,5-16c-2.3-10.7-19-7.1-31.1-5c0,0,24.9-12.6,37.9-10.3C242.3-930.4,231.5-914,228.5-905.8
		L228.5-905.8z M343.6-866.3L343.6-866.3c-5.4,7.5-17.9,11.7-26.3,13.7c-11.8,2.8-23.9,4.3-35.5,7.4c-15.9,4.3-49.4,13-43.3-15.1
		c1.3,4.9,0.5,14.1,17.9,13.5c7.4-0.3,17.6-9.2,39.4-13.8c7.1-1.5,15.2-1.4,22.5-2.7c15.1-2.8,17.4-16.9,10.1-28.2
		c-7.1-10.8-16.5-13.9-25.9-22.4c-6.2-5.7-14.6-15.9-21.6-20.8c-13.9-9.5-26.9,11.1-26.9,11.1c0.1-0.1,0.1-0.2,0.2-0.3
		c5.4-9.3,7.4-21.4,21.7-20.6c14.9,0.8,29.1,13.7,38.8,23c9.5,9.1,16.8,16.9,23.2,28.4C343-884.1,350.8-876.3,343.6-866.3
		L343.6-866.3z"/>
</g>
</svg>
