<?xml version="1.0" encoding="utf-8"?>
<!-- Generator: Adobe Illustrator 23.0.3, SVG Export Plug-In . SVG Version: 6.00 Build 0)  -->
<svg version="1.1" id="Layer_1" xmlns="http://www.w3.org/2000/svg" xmlns:xlink="http://www.w3.org/1999/xlink" x="0px" y="0px"
	 viewBox="0 0 389.4 353.3" style="enable-background:new 0 0 389.4 353.3;" xml:space="preserve">
<style type="text/css">
	.st0{fill-rule:evenodd;clip-rule:evenodd;fill:#FFFFFF;}
	.st1{fill:#FFFFFF;}
	.st2{fill-rule:evenodd;clip-rule:evenodd;fill:#FFDD00;}
</style>
<g>
	<path class="st0" d="M93.3,308.6l4.6-22.7c0.4-1.8,0.7-3,1.1-3.7c0.2-0.5,0.6-0.8,1-1.1l0-0.1l-0.3,0.1c-0.5,0-1.5,0.5-2.9,1.3
		c-1.6,0.8-2.7,1.3-3.4,1.4c-0.3,0.1-0.6,0-0.7-0.1c-0.1-0.1-0.2-0.3-0.2-0.6c0-0.7,0.1-1.6,0.5-2.5c0.3-0.9,0.8-1.7,1.3-2.5
		c0.6-0.7,1.1-1.3,1.8-1.7c1.4-0.8,3.3-1.5,5.7-2.1c2.5-0.7,5-1.1,8-1.5c3.1-0.4,5.7-0.1,8,0.7c2.2,0.8,4,2.2,5.2,4.2
		c1.2,2,2,4.5,2.2,7.5c0.2,3-0.2,6.1-1.2,9.3c-0.9,3.2-2.2,5.9-3.9,8.3c-3.9,5.4-9.3,8.5-16.2,9.4c-2.2,0.3-4.2,0.3-6.1,0.2
		c-1.9-0.2-3.2-0.5-3.7-1.1c-0.4-0.2-0.6-0.8-0.7-1.4C93.3,309.2,93.3,309,93.3,308.6z M109.7,332.5c0.5,0.1-1.1,0.7-0.1,0.5
		l0.9-0.6c-0.1,0.2,0.5,0.2,0.7,0.4c0.3-0.5-1.4-0.2-0.4-0.9c0.2-0.3,1.1-0.5,1.5-0.6c-1,0.2-0.1-0.3,0.4-0.6c0.6,0,1.5-0.3,1.9-0.2
		c0.1-0.1,0.5-0.2,0.8-0.3l0.1,0.1c0.7-0.2-0.3,0-0.1-0.2c0.5-0.1,1.3-0.2,2.2-0.4c-0.8,0.2-1.5,0.6-2.1,0.8c1.5-0.2-0.2,0.6-0.4,1
		c1.2-0.5,1.6-0.7,2.5-1.2c1.3-0.1,0.1,0.8-0.2,1c1-0.4,2.1-1.1,2.7-1.3c-0.7,0.6-0.6,0.7-1.2,1.3c1,0,1-0.3,1.5-0.6
		c-0.2,0.1-0.6,0.2-0.7,0.1c1-0.2,0.7-0.8,1.2-1.3c0.8,0,2.3-0.3,2.3,0.1l-0.2-0.4c0.9-0.3,0.5,0.1,0.7,0.2c0.2-0.4-0.2-0.7,1.2-1.2
		c-0.1,0.7,1.4-0.3,1.5,0.4c0.7-0.2,1-0.7,1.7-0.7c0.9,0.2-0.9,1.1-1.4,1.2c-1,0.3,0-0.3-0.4-0.2l-0.9,0.4c0.6,0,1.7-0.1,1.7,0.2
		c0.9-0.4-0.9-0.1,0.2-0.5l0.7,0c1-0.4-0.4-0.4,1.1-0.9c-0.9,0.5,1.6-0.4,1.6,0.1c0-0.6,2.6-0.7,2.7-1.2l-0.8,0l0.3,0.2
		c-0.8,0.2-1.5,0.6-2.4,0.7c0.6-0.3-0.4-0.4,0.4-0.8c1.4-0.7,0.5,0.2,0.7,0.2l1.1-0.6l-0.9-0.1c0.9-0.3,2.2-0.7,3.4-1
		c1.9-0.1-0.1,0.4,1.3,0.3c0.5-0.2,0.3-0.4,1.3-0.6c-0.5-0.1-0.8,0.3-1.1,0.3c-0.5-0.2,1.5-0.6,1.3-0.9c0.4,0,0.4,0.2,0.1,0.4
		c1.4-0.5,2.8-0.7,3.5-0.5l0.6-0.5c2.5-0.5-1.6,0.8,0.5,0.6c0.8-0.2,1.7-0.4,2-0.7l-0.7,0.1c0.5-0.3,0.5-0.6,1.3-0.9
		c0.6-0.1,0.4,0.2,1.1-0.2c2-0.2,0.7,0.6,0.5,1c1.5-0.1-0.5,1.1,0.4,0.5l-0.3,0l1.3-1c-1.5-0.2-0.5,0.6-1.1,0.2l-0.8,0.1
		c0.2-0.3,2.2-0.6,2.3-0.9c0.1,0.1-0.1,0.5-0.9,0.7l0.7,0.5c0.5,0,0.8-0.5,1-0.3c0.8,0.2-1,0.8,1,0.5s1.7-0.9,3-1.2
		c-0.2-0.1-0.5-0.1-0.9,0.1c0.4-0.3-0.4-0.2,0.3-0.6c0.5,0.2,1.9-0.1,2.9-0.3c-0.2,0.3,0.5,0.2,0.1,0.5c0.5-0.1,1-0.4,1.2-0.6
		c-2.2,0.3,2-0.8,0.3-0.8c1.6-0.3,2.1-0.1,3.2-0.2c0,0.1-1.9,0.7-0.3,0.5c1.6-0.7-0.5-0.4,0.8-1.2l-1.1,0.1
		c-0.3-0.4,1.9-0.5,2.1-0.7c0.7,0-0.9,0.3-0.2,0.5c1-0.1,1.5-0.6,2.2-0.5c-0.5,0.4-0.2,0.3-0.9,0.7c2.4-0.6,0,0.4,1.8,0.2
		c0.5-0.1,0.1-0.4,1.1-0.5c-0.6-0.3-0.6-0.4-2,0c0.4-0.6,1.9-0.3,2.9-0.8c-0.8,0.1-0.3,0-1.1,0.3c-0.3-0.4-0.6-0.4,0.2-1
		c-0.9,0.3-1.3,0.9-2.6,1c-0.5-0.3,1.6-0.7,1.5-1.3c0.6-0.4,2.4-0.6,3.2-0.6c1.3-0.7,2.9-1,3.8-1.7c1-0.1,3.3-1.1,5.2-1.3
		c0.3,0.1,2.2-0.4,1.2,0.2c0.1-0.1,1.7-0.4,1.2-0.6c-0.1,0.1-0.3,0.1-0.6,0.1l0.2-0.4c0.9-0.1,1.8-0.6,2.7-0.6
		c0.3,0.1-1.6,0.4-1,0.7c0.8-0.6,4-1.5,5.1-1.6c0.7-0.1,0.9,0.3,1.2,0.2l1.2-0.3c0.2,0.1,0.2,0.2,0.5,0.3c0.6,0,0.9-0.2,1.3-0.4
		c1.6,0,0.9,0.4,0.1,0.8l-0.9,0.1c-0.6,0.3-1.6,0.4-1,0.6c0.4-0.2,0.4-0.3,0.5-0.3l0.6,0.1c0.5-0.2,1.9-0.6,1.7-0.8
		c1.1,0,2.3-0.5,3.3-0.5c-0.7-0.1,0.1-0.3-0.1-0.5l-1.1,0.2c0.9-0.2,2.2-0.7,3.1-0.7c-0.1,0.2-0.1,0.3,0.4,0.3
		c-0.7-0.1,1.6-0.6,0.2-0.7c-0.4,0.2-0.9,0.3-1.6,0.4c-0.5-0.2,0.5-0.6,1-0.8c0.7-0.2,2.1-0.6,2.9-0.9c0.6,0,0.9,0.4,1.8-0.1
		c-1.4-0.1,1.1-0.8,1.3-1.3c1,0,1.6-0.6,2.4-0.5c-0.4,0.2-1.9,0.5-2.2,0.8c0,0.3,0.4,0.6-1,1c1.8-0.2,1-0.4,1.8-0.6l-0.6,0.1
		c0.2-0.2-0.3-0.2,0.2-0.4c2.1-0.3,2.5,0,4,0c-0.4-0.1,0.2-0.5,0.6-0.5c1.4,0,0,0.6,1,0.8c0.4-0.4,1.4-0.5,1.1-0.6
		c0.5-0.1,0.3,0,0.7,0.1c0.3-0.3,0.6-0.4,1.5-0.6c0,0.1-0.1,0.3-0.8,0.4c0.8,0,1.2,0.3,0.8,0.6l-1.3,0.1c-0.5,0.3,1.2-0.1,1.2,0.1
		c-0.5,0.1-1,0.1-1.4,0.2c0.4,0.2,1.5-0.2,2.2-0.4c1-0.1,0.7,0.2,0.8,0.4c1.7-0.7-2.1-0.1-0.5-0.9c0.5-0.4,2.2-0.7,3.3-0.9
		c-1-0.2,0.1-0.5,1.2-0.9c-1.5,0.2-0.5-0.3-2.1,0.2l-0.1-0.3c0.7-0.1,1.6-0.1,2.4-0.3c-0.1,0.1,0.1,0.1-0.2,0.3l2.3-0.5l-0.2,0.3
		c1.4-0.2,3.1-0.3,4-0.5c-0.6,0.1-1.3,0-0.6-0.3c0.4-0.2,1.1-0.5,1.8-0.5c0.4,0.2,2.7-0.1,1.4,0.4c2-0.5,1.1-0.4,3-0.9l-1.2,0.3
		c-0.2-0.2,0.8-0.8-0.4-0.8c1.3-0.4,0.4-0.8,2.3-1.1c0.8,0.1-0.2,0.6-1.2,0.8c0.5,0,1,0,1.5-0.2c0.4,0.1-1,0.5-0.9,0.6
		c1-0.1-0.1-0.1,0.8-0.3c1.6-0.5,1.1,0.3,2.6-0.1c-0.3,0.1-0.9,0-0.6-0.2c2-0.3,1.1-0.4,2.6-0.7c0.9,0.3,0.6,0.8,1.9,0.7L235,304
		c0.6,0.2,1.2,0.1,1.7,0.1c2.8-0.7,5-1.6,7.9-2.3l-1,0.2c-0.4-0.1,0.8-0.3,0.8-0.4l0.7,0.1c0.1-0.3-1.5-0.1-1.2-0.4
		c0.1,0,0.3,0,0.4-0.1l-0.6-0.1c1.4-0.1,2.4-0.7,3.5-0.4c-2.6,0.3-0.3,0.9-2.8,1.3c1.3-0.3,0.3,0.2,0.5,0.3c0.7,0,0.3-0.3,1.1-0.3
		c0,0.2-1.7,0.6-1,0.6c0-0.3,0.7-0.3,1.1-0.6c0.6,0.1,0,0.2,0.3,0.3c0.3-0.1,0.5-0.2,0.8-0.2l-0.2,0.2c1.7,0.1,0.4-0.4,2.4-0.5
		c0-0.3-0.6-0.2-1.3,0c-0.4-0.5,2.4-0.9,2.2-1.5c1.8-0.3-0.4,0.3,1.1,0.3c0.9,0.3-1.1,0.6-1.4,0.9l1.6,0.1c-0.5,0.6-1.5,0.6-1.7,1
		c1.2-0.1,1-0.2,2.2-0.6c-2-0.2,0.8-0.4-0.3-0.7c0.9,0,0.7,0.2,1.9,0c-0.8,0.2,0,0.4-1.1,0.6c1.7-0.2,1.2-0.3,3.1-0.5
		c0.5-0.4-1.8-0.3,0.3-0.8c0.5,0,0.4,0.1,0.1,0.1c1.5,0-0.4-0.4,0.6-0.6c0.6-0.1,0.9,0,0.7,0.2c0.9-0.3,0.3-0.5,1.1-0.6l-0.3,0
		c0.3-0.2-0.5-0.6,0.9-0.7c1-0.1,0.8,0.2,0.8,0.3c0.8-0.2,1.4-0.2,2-0.1c-0.1-0.1,0-0.1,0.2-0.2c1.3-0.3,0.8,0.2,1.4,0.2
		c2,0-0.3-0.6,1.9-0.8l-2.5,0.1c0.1-0.2,0.2-0.5-0.5-0.4c0,0.3-1,0.6-1.8,0.6c-0.3-0.3,2.3-0.6,0.8-0.7c0.5,0.1,1.2-0.2,1.8-0.2
		c-0.6,0.3,2-0.1,1,0.3c2.7-0.3,3.2-0.2,5.8-0.5c-0.2,0.2-1.8,0.8-3.2,0.8l-0.1-0.2c-1.6,0.3,1.3,0.1,1.1,0.4c2-0.7,4.5-0.1,7.1-0.5
		c-0.5-0.2,0-0.3,0.2-0.5c-1,0.1-0.8,0.1-1.6,0c0.1-0.2,0.7-0.2,1-0.4c0.2-0.3-0.8,0-1.1,0c0.9-0.2,0.8-0.2,1.5-0.5
		c0.6,0.2,0.5,0.2,1,0.5c2.4-0.1,2.1-0.5,4-0.6c-1.1,0,0.5,0.2-0.6,0.2l0.6,0c-1.7,0.4-4.5,0.6-4.1,1.2c1.3-0.2,2.3-0.6,4-0.6
		l-0.1,0.1c1.2-0.1,0-0.2,0.2-0.3c1.3-0.3,1.8,0.5,2.6,0l-1.4,0c1-0.3-0.3,0-0.1-0.4c1.9-0.4,5-0.4,7.6-0.7c-0.8-0.2-1-0.2-2-0.2
		c0.5-0.6,0.9-0.5,0.3-1l-1.2,0l0-0.5c0.3-0.1,0.7,0,0.9,0c0.1-0.3,1.8,0,1.8-0.3l-1,0.1c-0.5-0.2,0.7-0.2,1.4-0.4
		c-0.7-0.3-2.2,0.1-3.6,0.2c0.1,0.2-1.3,0.6,0.1,0.6c0,0.2-0.8,0.3-1.4,0.4c0.3-0.2-1.2-0.5,0.2-0.7c-1.2,0.3-0.5,0-1.9,0.2
		c0.2-0.2-2.4,0.2-2.3-0.3c-0.4,0.3,0,0.6-1.6,0.7c0.4,0.2,2.2,0.2,1,0.6l0.7-0.2c1.1,0.1-0.3,0.4,1.2,0.4c-0.4,0-1.3,0.2-1.5,0
		c0.4,0.6-2.2,0.4-2.2,0.9c-0.3-0.1-0.8-0.2-1.6-0.1c0.1-0.2-0.4-0.3,0.2-0.5c0.5,0.1,0.9-0.1,1.5,0.1c-0.3-0.6-2.1-0.1-3.4-0.1
		c0.2,0,0.3,0.1-0.1,0.2c-0.8-0.1-2.6-0.1-2.2-0.3l-4.1,0.4c0-0.1,0.6-0.1,0.8-0.2l-2.3,0.2c-0.6-0.2,0.7-0.2,1-0.5l-1.6,0.1
		l0.2-0.2c-0.4,0.2-2.2,0.4-2.8,0.1c-1.8,0.2-1.7,0.9-4.2,0.9c0-0.3,1.3-0.3,2-0.5c-0.5-0.1-1.9,0.3-2.2,0c-1.7,0.3-1.5,1-2.3,1.3
		c-1.4,0.2-0.2-0.2-0.3-0.3c-0.4,0.1-1.1,0.7-1.5,0.2c-0.6,0.3-1.1,0.6,0,0.6c-0.8,0.1-1.8,0.3-2,0.5c0.6-0.5-0.9-0.1-1.1-0.5
		c-1.1,0.1-3.7,0.2-4.7,0.8l0.3-0.6l-1.3,0.3c-1.1-0.2,1.2-0.5,1.8-0.6c-1.8,0.1-3,0.3-4.7,0.5c0.5,0.1,0.2,0.2,0.5,0.3
		c-0.5,0.2-1.3,0.3-1.9,0.3c-0.2-0.1-0.1-0.2,0.3-0.4l-1.1,0.2c0-0.3-0.5-0.2,0.6-0.6l-1,0.2c-1.2,0.1,0-0.3,0.2-0.4l-1.8,0.2
		c-0.6,0.2,0.4,0.2-0.9,0.5c-1.7-0.1-3.9,0.3-5.8,0.5l1.4,0.1c-1.1,0.1-0.9,0.5-1.2,0.8c-1.1,0.1-2.4,0.4-3.5,0.4
		c0.9-0.4,0.5-0.7-0.5-0.8c-2.1,0.3-1.6,0.7-2.7,1.1c0.9-0.8-1.5,0-1.4-0.3c-0.1,0-0.3,0.1-0.4,0.1l0,0c0.2-2,0.3-4.6,0.3-7.8
		l-0.1-1.3c0.1,0,0.2-0.1,0.3-0.1c0.1,0,0.2-0.1,0.5,0c1-0.2,1.9-0.4,2.4-0.8c0.5-0.2,1.1-0.7,1.4-1.2c0.5-0.6,0.7-1.1,1-1.9
		s0.4-1.4,0.4-1.9c-0.1-1-1-1.4-2.6-1.2c-0.4,0.1-0.9,0.1-1.4,0.3c-0.3,0.1-0.5,0-0.6,0.1c-0.1,0-0.3,0.1-0.5,0l-0.3,0.1
		c0-0.2,0-0.4,0.1-0.6c0-0.2,0.1-0.5,0.1-0.6c0.3-3.5,0.4-6,0.6-7.6s0.3-3.3,0.5-5.3c0.1-0.5,0.1-0.9,0.2-1.3
		c0.2,0.1,0.3,0.4,0.4,0.7c0.1,0.4,0.2,1.3,0.2,2.6l0,0.3l0.1,0.4c0.1,1.3,0.3,1.9,0.6,2c0.4-0.1,0.7-0.5,1.1-1.5
		c0.3-1,0.5-2.3,0.7-3.8s0.2-3,0.1-4.3c0-0.9-0.2-1.5-0.6-2c-0.4-0.4-0.8-0.6-1.5-0.6c-1.4,0.2-2.8,1.4-4.1,3.7
		c-1.3,2.4-2.5,5.4-3.5,9.2c-1,3.8-1.7,8.1-2.2,12.6c-0.4,4.4-0.6,8.7-0.4,12.9c-0.3,0.1-0.7,0.1-1,0.2c0.1,0.1,0.9,0.1,0.4,0.2
		c-1,0.3-1.5,0.1-1.7,0c-1.3,0.3-2.1,0.6-2.5,0.9c0.6-0.1,0.6,0,0.6,0.2c-1.3,0.3-1-0.2-2.2,0.3c-0.4-0.2,1.4-0.5,1.2-0.7
		c-1.2,0.2-1.9,0.4-2.7,0.7c-0.3-0.2,0.8-0.2,0.1-0.3c-1.8,0.5-3.9,1.1-5.3,1.5l-0.4-0.2c-0.8,0.2-1.4,0.4-1.9,0.5
		c-0.5-0.1-0.1-0.1,0.3-0.3c-1.1,0.2-2.6,0.7-3.2,0.9c0-0.2,0.6-0.1,0.8-0.3c-1.4,0.3-3.2,1.1-4.2,1c0.1-0.1,0.2-0.1,0.4-0.2
		c-2.2,0.4-4,1-6.4,1.5c-2.2,0.1-0.6,0.5-2.7,0.9c-0.1-0.7-2.9,0.5-3.8,0.6l0.3,0c-1,0.5-2.5,0.6-3.3,0.5c-1.5,0.3-3.9,0.8-5.5,1.5
		l0.3-0.3c-1.3,0.5-2.2,0.4-3.4,0.9c0-0.1,0.5-0.2,0-0.2c-6.4,1.2-12.6,3.1-18.9,4.5c-12,2.6-26.9,6.2-38.4,9.8
		C113.3,326.9,108.5,331.5,109.7,332.5z M295.7,289c-1,0.1-1.6-0.2-1.6-1c0-0.2,0.1-0.6,0.1-1.1c0.1-0.5,0.2-0.9,0.3-1.2
		c0.3-0.9,0.6-1.5,0.8-1.8c0.3-0.4,0.8-0.7,1.4-1.1c0.6-0.3,1.2-0.5,1.7-0.5c0.7,0,1.1,0.3,1.1,1.2c0,0.8-0.1,1.9-0.5,3.2
		c-0.1,0.4-0.2,0.7-0.4,0.9c-0.1,0.2-0.3,0.4-0.8,0.5C297.1,288.6,296.3,288.9,295.7,289z M288.9,289.8c-1,0.1-1.6-0.2-1.6-1
		c0-0.2,0.1-0.6,0.1-1.1c0.1-0.5,0.2-0.9,0.3-1.2c0.3-0.9,0.6-1.5,0.8-1.8c0.3-0.4,0.8-0.7,1.4-1.1c0.6-0.3,1.2-0.5,1.7-0.5
		c0.7-0.1,1.1,0.3,1.1,1.2c0,0.8-0.1,1.9-0.5,3.2c-0.1,0.4-0.2,0.7-0.4,0.9c-0.1,0.2-0.3,0.4-0.8,0.5
		C290.2,289.4,289.5,289.7,288.9,289.8z M282,290.6c-1,0.1-1.6-0.2-1.6-1c0-0.2,0.1-0.6,0.1-1.1c0.1-0.5,0.2-0.9,0.3-1.2
		c0.3-0.9,0.6-1.5,0.8-1.8c0.3-0.4,0.8-0.7,1.4-1.1c0.6-0.3,1.2-0.5,1.7-0.5c0.7-0.1,1.1,0.3,1.1,1.2c0,0.8-0.1,1.9-0.5,3.2
		c-0.1,0.4-0.2,0.7-0.4,0.9c-0.1,0.2-0.3,0.4-0.8,0.5C283.4,290.2,282.6,290.6,282,290.6z M270.5,270.7l0-0.3
		c0.7-2.8,1.4-4.8,1.9-5.9c0.3-0.6,0.7-1,1.2-1.6c1-0.8,1.9-1.3,2.8-1.4c0.5,0,0.9,0,1.2,0.2c0.3,0.2,0.4,0.5,0.5,1.1
		c0.1,0.3-0.1,1.1-0.5,2.2c-0.6,1.8-1,3.4-1.2,5c0.2,0,0.4,0,0.7,0.1c0.8,0.1,1.3,0.1,1.6,0.3c0.3,0.1,0.4,0.4,0.4,0.8
		c0,0.8-0.1,1.5-0.4,2.2c-0.3,0.7-0.7,1.2-1.3,1.6c-0.4,0.3-1.2,0.5-2.1,0.7c-0.2,0.6-0.2,1.4-0.4,2.4c-0.1,0.9-0.1,2.1-0.2,3.7
		c-0.1,0.6,0,1.1-0.1,1.6c0.2,2.3,1.2,3.3,3.2,3l0.1,0l0.1,0c0.2-0.1,0.4,0,0.4,0.1c0,0.2-0.2,0.7-0.6,1.2c-0.5,0.6-0.9,1.1-1.4,1.7
		c-0.6,0.5-1.2,1-1.8,1.2c-0.6,0.3-1.3,0.6-1.9,0.6c-1.4,0.2-2.5-0.3-3.4-1.2c-0.9-0.9-1.4-2.3-1.5-4c0-0.7,0.1-1.7,0.2-2.9
		c0.1-1.2,0.4-2.9,0.8-4.8c0-0.4,0.1-0.8,0.2-1.1c0-0.4,0.1-0.6,0.1-0.7c-0.5,0-0.9,0-1.2-0.2c-0.3-0.2-0.3-0.5-0.4-1.1
		c0-0.9,0.2-1.8,0.8-2.7C268.9,271.6,269.7,271,270.5,270.7z M257,287.2c0.2,0.9,0.8,1.3,1.7,1.2c1-0.1,2.3-1,3.9-2.4
		c0.9-0.9,1.5-1.4,1.8-1.3c0.4-0.1,0.8,0,1.2,0.2c0.4,0.2,0.6,0.5,0.5,0.7c0,0.3-0.2,0.7-0.5,1.2c-0.7,0.8-1.5,1.8-2.4,2.6
		c-0.9,0.9-1.8,1.6-2.5,2.3c-0.9,0.6-1.7,1.1-2.6,1.4c-0.8,0.4-1.6,0.6-2.3,0.7c-1.7,0.2-3.1-0.2-4.1-1.1c-1.1-0.9-1.7-2.3-1.8-4.1
		c-0.1-1.3,0.1-2.9,0.6-4.7c0.5-1.8,1.1-3.5,1.9-5c1-1.9,2.2-3.5,3.7-4.8c1.9-1.6,3.6-2.5,5.4-2.8c1.2-0.2,2.3,0.1,3,1
		c0.7,0.8,1.2,1.9,1.2,3.5c0.1,1.2-0.2,2.5-0.6,3.9c-0.5,1.4-1.3,2.8-2.3,4.1c-0.8,1.1-1.7,2-2.6,2.7c-0.9,0.7-1.6,1-2.2,1.2
		C257.6,287.4,257.3,287.4,257,287.2z M256.9,286.5c0.6-0.5,1-1.1,1.4-1.6c0.6-1,1.1-2.2,1.5-3.6c0.3-0.9,0.5-1.8,0.6-2.9
		c0.1-1,0.1-2,0.1-2.9c0-0.8-0.2-1.2-0.6-1.2c-0.4,0.1-1,1.2-1.8,3.4c-0.4,1.4-0.8,2.6-1.1,4c-0.2,1.3-0.3,2.4-0.3,3.3
		C256.7,285.5,256.8,286,256.9,286.5z M242.2,278c0.5-1.8,0.8-3.6,1.1-5.6c0.3-2,0.3-3.4,0.3-4.4c0-0.3-0.1-0.4-0.3-0.4
		c-0.2,0.1-0.6,0.6-1.1,1.8c-0.5,1.2-0.9,2.3-1.2,3.5c-0.7,2.6-1.2,4.7-1.5,6.5c-0.4,1.7-0.5,3.2-0.6,4.3c-0.1,1.1-0.1,2.3-0.1,3.5
		c0.1,1,0.2,1.7,0.4,2.2c0.3,0.4,0.5,0.7,1,0.6c0.7-0.1,1.6-0.5,2.5-1.5c0.9-0.8,1.7-1.9,2.3-3.3c0.5-1,1-1.5,1.4-1.6
		s0.7,0.3,0.7,1.1c0.1,1.6-0.2,3.3-1.1,5c-0.9,1.7-1.9,3.1-3.4,4.3c-1.4,1.2-2.9,1.8-4.4,2c-1.8,0.2-3.4-0.2-4.7-1.4s-1.9-2.8-2-4.9
		c-0.1-1.7,0.1-3.8,0.6-6.2c0.5-2.4,1.3-4.8,2.3-7.3c1-2.5,2.1-4.7,3.3-6.8s2.5-3.7,3.7-4.8c0.8-0.7,1.6-1.1,2.6-1.3
		c0.7-0.1,1.4,0,2.1,0.5c0.7,0.5,1.2,1.1,1.5,2c0.4,0.8,0.6,1.9,0.7,3c0.2,2.4-0.2,4.8-0.8,7.3c-0.8,2.4-1.8,4.5-3.3,6.4
		c-0.7,0.9-1.4,1.7-1.9,2.1c-0.7,0.5-1.2,0.9-1.7,0.9c-0.5,0-0.7-0.1-0.7-0.6c0-0.2,0.2-0.7,0.4-1.4c0.4-0.9,0.9-2.2,1.5-4.1
		c0-0.2,0.1-0.4,0.2-0.6C242.1,278.6,242.1,278.3,242.2,278z M206.4,291.9l-0.3,0.4c-0.1,0.1-0.6,0.5-1.3,1.4
		c-1.7,1.7-3,3.1-4.1,4.1c-1.1,1-2,1.8-2.8,2.3c-0.8,0.5-1.4,0.8-1.8,0.8c-0.8,0.1-1.4-0.1-1.9-0.9c-0.5-0.7-0.8-1.6-0.8-2.7
		c-0.1-1.9,0-4.2,0.4-6.9c0.4-2.7,0.9-5.3,1.7-7.9c0.8-2.9,1.9-4.7,3.3-5.6c0.4-0.3,1.1-0.5,1.8-0.5c0.9-0.1,1.7,0.1,2.2,0.7
		c0.6,0.6,1,1.4,1,2.4c0,0.7-0.1,1.5-0.2,2.3c-0.2,0.8-0.5,1.9-0.9,2.9l-0.2,0.8c-1.1,3.1-1.6,5-1.6,5.6c0.1,0.4,0.1,0.5,0.3,0.5
		c0.2-0.1,0.5-0.2,0.9-0.6c0.3-0.4,0.8-1,1.5-2.1c0.4-0.7,1.1-1.5,1.8-2.5l0.8-1l0.7-0.9c1.4-1.8,2.5-3.2,3.4-4
		c0.9-0.8,1.6-1.2,2.3-1.4c1.1-0.2,1.8,0.9,2,3.2c0,0.5,0.1,1.3-0.1,2.5c0,2.3,0,4.3,0.1,5.9c0.1,0.3,0,0.6,0.1,0.9
		c0,0.3,0,0.6,0.1,1c0.2,1.1,0.3,1.9,0.4,2.4l0.3,1.3c0,0.5-0.3,1-1.1,1.4c-0.7,0.4-1.7,0.7-2.7,0.9c-0.9,0.1-1.8,0-2.5-0.4
		c-0.7-0.4-1.2-0.8-1.6-1.7c-0.4-0.7-0.6-1.8-0.7-2.9c0-0.1,0-0.4,0-0.8C206.4,293,206.5,292.5,206.4,291.9z M176.7,287.1
		c-1.4-1.2-2.4-2.5-3-3.5s-0.9-2.2-0.9-3.5c-0.1-1.9,0.3-3.8,1.3-5.6c1-1.8,2.3-3.4,4-4.5c1.7-1.2,3.6-1.9,5.6-2.1
		c2.3-0.3,4.1,0,5.4,1s2,2.3,2.1,4.3c0,0.9-0.1,1.9-0.5,3c-0.4,1.1-0.9,2-1.7,3c-0.5,0.7-1,1.2-1.5,1.6c-0.4,0.4-0.9,0.5-1.2,0.6
		c-0.4,0.1-0.6-0.3-0.6-1c0,0,0-0.2,0.1-0.8c0.1-0.8,0.1-1.5,0-2.1c0-0.9-0.2-1.7-0.5-2.6c-0.3-0.8-0.6-1.6-1-2.1
		c-0.4-0.5-0.7-0.8-1.1-0.7c-0.2,0-0.3,0.2-0.5,0.4c-0.4,0.6-0.6,1.1-0.9,1.8c-0.2,0.7-0.2,1.4-0.2,2c0,0.7,0.2,1.4,0.4,2.1
		c0.2,0.6,0.6,1.3,1.1,1.8s1.2,1.2,2,1.9c1.3,1.1,2.4,2.2,3.1,2.9c0.7,0.9,1.3,1.7,1.6,2.7c0.4,0.9,0.6,1.9,0.6,3
		c0.1,1.9-0.3,3.9-1.1,5.7c-0.8,1.9-2,3.5-3.4,4.8c-1.4,1.3-2.9,2-4.6,2.2c-1.5,0.1-3,0-4.6-0.6c-1.5-0.6-2.9-1.4-4.3-2.6
		c-1.4-1.2-2.2-2.5-2.1-3.6c0-0.7,0.2-1.4,0.7-2.1c0.6-0.7,1.2-1.4,2.1-2c0.9-0.6,1.6-0.9,2.2-1c0.3-0.1,0.6,0.1,0.9,0.2
		c0.3,0.1,0.5,0.4,0.7,0.9c0.3,0.4,0.4,1,0.6,1.8c0.4,1,0.6,1.9,1,2.4c0.2,0.5,0.6,1,1.1,1.5c0.5,0.4,0.9,0.6,1.5,0.6
		c0.6,0,1-0.4,1.4-1c0.4-0.6,0.4-1.3,0.4-2.2c-0.1-1.4-0.6-2.8-1.6-4.2c-0.3-0.4-0.6-0.9-1-1.2c-0.4-0.3-1.1-1-2.2-1.9
		C178,288.2,177.5,287.8,176.7,287.1z M146.4,293.2l1.3-2c1.3-1.9,2.3-3.3,3.2-4.3c0.8-0.9,1.5-1.7,2.1-2.1c0.6-0.4,1.3-0.8,2-0.8
		c1.1-0.1,1.9,0.1,2.3,0.6s0.7,1.7,0.9,3.3c0,0.7,0,1.6,0,3c-0.1,1.7,0,3.4,0,4.9c0.1,1.7,0.3,3,0.5,4.1c0.1,0.6,0.4,1.2,0.6,1.9
		c0.1,0.6,0.3,1,0.3,1.2c0,0.3-0.1,0.5-0.3,0.7c-0.5,0.6-1,1-1.9,1.4c-0.7,0.4-1.4,0.7-2,0.7c-0.9,0.1-1.7-0.2-2.4-0.8
		c-0.7-0.6-1.4-1.4-1.8-2.6c-0.5-1.2-0.8-2.5-0.8-3.9c-0.1-1,0-2.2,0.1-3.5l-0.1-0.1c-0.6,0.9-1.1,1.6-1.5,2.2
		c-0.4,0.6-0.7,1-1.1,1.5c-1.5,2.4-3,4.5-4.1,6.4c-0.4,0.8-0.8,1.4-1.2,2c-0.6,0.6-1.1,1.1-1.8,1.2c-1,0.1-1.8-0.2-2.4-1
		s-1-1.8-1.1-3c0-0.8,0-1.8,0.1-3c0.1-1.2,0.3-2.5,0.5-3.8c0.2-1.4,0.5-2.8,0.8-4.2c0.4-1.5,0.7-2.8,1-4.1c0.6-2.1,1.3-3.9,2.3-5.2
		c0.7-0.8,1.4-1.4,2.5-1.5c1.6-0.1,2.4,0.9,2.6,3.2C147.1,287.5,146.8,289.9,146.4,293.2L146.4,293.2z M131.4,283
		c-1.4,0.2-2.2-0.7-2.3-2.7c0-0.9,0.1-2.1,0.4-3.4c0.3-1.3,0.7-2.2,1.3-2.9c0.2-0.4,0.6-0.6,0.8-0.8c0.3-0.2,0.6-0.2,1-0.3
		c0.8-0.1,1.3,0,1.8,0.5c0.4,0.3,0.6,1.1,0.7,2c0.1,1.2,0,2.4-0.4,3.5c-0.3,1.2-0.8,2-1.4,2.8C132.8,282.5,132.1,282.9,131.4,283
		L131.4,283z M130.1,309c-0.7,0-1.4-0.2-1.9-0.8c-0.6-0.6-1.1-1.3-1.3-2c-0.3-0.7-0.4-1.8-0.5-3.1c-0.1-2.8,0.1-6,0.9-9.7
		s1.7-6.4,2.7-8.1c0.5-0.8,1.1-1.1,1.9-1.2c0.9-0.1,1.6,0.3,2.2,1.1c0.6,0.9,0.9,2,1.1,3.4c0.1,2.1,0,4.7-0.4,7.7s-1,6.1-1.9,9.4
		c-0.3,1.3-0.7,2.2-1.3,2.8C131.1,308.8,130.7,308.9,130.1,309L130.1,309z M108.5,279.3l-3.8,21.4c0,0.1-0.1,0.5-0.1,1
		c-0.3,1.5-0.5,2.7-0.9,3.4c-0.3,0.7-0.6,1.3-1.1,2.2c0.5,0,1-0.1,1.6-0.1c1.4-0.2,2.7-0.4,3.6-0.7c0.9-0.3,1.8-0.8,2.6-1.4
		s1.5-1.4,2.2-2.3c1.3-1.7,2.2-3.6,2.8-5.7c0.6-2.1,0.9-4.4,0.7-6.8c-0.1-2.2-0.5-4.2-1.2-5.9c-0.7-1.7-1.6-3.1-2.7-3.9
		C111.2,279.7,109.9,279.3,108.5,279.3z"/>
</g>
<g>
	<path class="st1" d="M193.1,168.3h-19l-17.3,72h19.3c41.6,0,49.7-13.3,53.5-36.9C233.1,181.2,223.1,168.3,193.1,168.3L193.1,168.3z
		 M209.4,200.9c-1.1,7.2-1.6,23.3-28.4,21.4l9-36.6C203.7,186.1,211.5,187,209.4,200.9L209.4,200.9z"/>
	<path class="st1" d="M71.6,168.3H53.1c-16.8,21.2-28.2,47.3-38.1,72h18.3c1.7-4.7,3.6-9.4,5.6-14.2h21.6c0.1,3.9,0,10.3-0.4,14.2
		h18.2C81,214.8,78.2,189.8,71.6,168.3L71.6,168.3z M45.4,211.9c3.7-7.4,7.6-14.4,12-20.6c1.8,6.4,2.9,13.2,3.3,20.6H45.4
		L45.4,211.9z"/>
	<path class="st1" d="M327,200.3c2.3,4,8.7,9.2,11.8,12.8c5.6,5.3,3.9,10.4-0.6,10.5h-23.9l-3.9,16.8h27c14.7,0,30.9-11.4,25.1-28.2
		c-1.7-5-9.6-12.4-13-16.2c-5.6-5.3-3.5-10.4,1-10.4h20.3l3.6-17.1H351C334.9,168.3,316,180.6,327,200.3L327,200.3z"/>
	<path class="st1" d="M322,172.7c-0.3-4.9-3.6-8.9-8.2-8.9c-4.7,0-8.4,4-8.4,8.9s3.8,8.9,8.4,8.9c0.2,0-0.8,3.2-2.9,4.8
		C315.3,186.8,322.4,179.1,322,172.7L322,172.7z"/>
	<path class="st1" d="M298.4,168.2h-18.3v0.1h-0.6c-0.4,4-1.8,19.5-9.8,32.9c-0.8,1.2-1.6,2.3-2.4,3.4c-7.4-9.9-10-22.4-7.4-35.8
		c0.1-0.2,0.1-0.4,0.1-0.5l-20-0.1l0,0c0,0.2-0.1,0.4-0.1,0.6c-3.7,18.7,0.2,36.1,10.9,49.7c-0.8,0.4-1.3,0.6-1.3,0.6
		c-5.2,2-11.2,3.2-18.4,3l-4.9,18c0.6,0,1.2,0,1.8-0.1c0.2,0,0.4,0,0.6,0c9.4,0,18.5-1.2,26.7-3.9c4.1-1.4,7.9-3.1,11.6-5.2
		c0.2-0.1,4-2.3,6.2-4.2c0.3-0.3,1.4-1.2,1.7-1.4c12.9-11.1,21.7-29.1,23.5-56.8c0,0,0,0,0-0.1l0,0
		C298.4,168.3,298.4,168.2,298.4,168.2L298.4,168.2z"/>
	<path class="st1" d="M146.2,168.3l-4.6,19.7c-5.2-7.9-11.9-14.6-19.9-19.7l0,0l0,0h-20.5l-16.8,72h20.9l11.3-50
		c9.2,7.8,15.2,18.6,17,31.1c0,0.1,0,0.2,0,0.3l-4.3,18.5h20.9l16.3-72L146.2,168.3L146.2,168.3z"/>
	<path class="st2" d="M315.8,132.5c26.1-13.9,38-42,33.6-56.7c-7.2,12.9-22.5,25.4-37,33.3c-53.5,28.9-145.9,5.6-178.7,26.4
		c-7.2,4.5-11.6,11.9-14,21.4c4.3-6.2,13.7-11.2,33.6-13C173.9,142,281.3,154.1,315.8,132.5L315.8,132.5z"/>
	<path class="st2" d="M309.6,89.1c38-32.4,17.4-62.3,0-66.7c16.3,32.9-24.8,54.4-57,60.1C217,88.8,159.1,90,134.9,98.6
		c-34.6,12.3-39.4,37.4-31.1,55.1C112.9,90,262,129.8,309.6,89.1L309.6,89.1z"/>
</g>
</svg>
